<svg id="Group_10495" data-name="Group 10495" xmlns="http://www.w3.org/2000/svg" xmlns:xlink="http://www.w3.org/1999/xlink" width="29.349" height="39.163" viewBox="0 0 29.349 39.163">
  <defs>
    <clipPath id="clip-path">
      <rect id="Rectangle_3035" data-name="Rectangle 3035" width="29.349" height="39.163" fill="#fff"/>
    </clipPath>
  </defs>
  <g id="Group_10494" data-name="Group 10494" clip-path="url(#clip-path)">
    <path id="Path_46121" data-name="Path 46121" d="M24.678,0a16.535,16.535,0,0,1,2.113,1.4A4.963,4.963,0,0,0,30.42,2.825c2.753-.106,3.757,1.769,3.842,3.953A5.448,5.448,0,0,0,35.4,9.929a11.1,11.1,0,0,1,1.287,2.127,2.878,2.878,0,0,1-.8,3.7,4.28,4.28,0,0,0-1.657,3.674A4.027,4.027,0,0,1,29.9,23.319a3.68,3.68,0,0,0-1.982.493A13.01,13.01,0,0,0,26.2,25.05a3.654,3.654,0,0,1-4.5-.038c-.529-.388-1.038-.805-1.568-1.192a2.991,2.991,0,0,0-2.145-.545,3.983,3.983,0,0,1-4.254-3.7c-.02-.379-.02-.758-.04-1.137a2.647,2.647,0,0,0-1.007-2.108c-2.227-1.716-2.122-3.553-.691-5.536a7.464,7.464,0,0,0,1.78-4.705,2.966,2.966,0,0,1,.267-1.017,2.92,2.92,0,0,1,3-2.2,5.951,5.951,0,0,0,4.564-1.816A8.745,8.745,0,0,1,23.312,0Zm6.99,13.053a7.723,7.723,0,1,0-7.743,7.739,7.722,7.722,0,0,0,7.743-7.739" transform="translate(-9.296)" fill="#fff"/>
    <path id="Path_46122" data-name="Path 46122" d="M7.182,183.918c-.473-.668-1-1.3-1.409-2.01-1.039-1.811-1.016-1.818-3.068-1.432-.618.116-1.241.22-1.866.279s-.9-.283-.83-.878a2.775,2.775,0,0,1,.236-.941c1.4-2.737,2.814-5.464,4.268-8.275A4.893,4.893,0,0,0,8.1,172.572a4.735,4.735,0,0,1,3.321,1.447,7.746,7.746,0,0,0,1.194.746c-.9,1.721-1.824,3.45-2.721,5.191-.415.8-.752,1.65-1.189,2.442a16.309,16.309,0,0,1-1.067,1.52Z" transform="translate(0 -144.755)" fill="#fff"/>
    <path id="Path_46123" data-name="Path 46123" d="M115.816,184.917a4.826,4.826,0,0,1-.724-.854c-1.412-2.761-2.8-5.537-4.2-8.329.027-.018.085-.053.14-.094a13.282,13.282,0,0,1,2.455-1.745c.894-.378,2-.234,2.924-.566a16.829,16.829,0,0,0,2.625-1.491c1.371,2.655,2.827,5.424,4.215,8.226a1.772,1.772,0,0,1,.018,1.416c-.124.235-.815.275-1.232.228-.952-.108-1.887-.35-2.838-.475a.853.853,0,0,0-.689.311c-.5.789-.9,1.635-1.4,2.428a7.055,7.055,0,0,1-.841.945Z" transform="translate(-94.057 -145.754)" fill="#fff"/>
    <path id="Path_46124" data-name="Path 46124" d="M73.106,70.923c-1.142-1.19-2.217-2.292-3.259-3.424a.65.65,0,0,1-.031-.63c.49-.568,1.038-1.086,1.607-1.665L73.2,66.811c.995-.967,2-1.882,2.929-2.874.517-.554.838-.507,1.322.022,1.462,1.6,1.618,1.151-.061,2.8-1.37,1.343-2.75,2.675-4.285,4.167" transform="translate(-59.161 -53.895)" fill="#fff"/>
  </g>
</svg>
