<svg id="Group_10852" data-name="Group 10852" xmlns="http://www.w3.org/2000/svg" xmlns:xlink="http://www.w3.org/1999/xlink" width="67.931" height="67.952" viewBox="0 0 67.931 67.952">
  <defs>
    <clipPath id="clip-path">
      <rect id="Rectangle_3112" data-name="Rectangle 3112" width="67.931" height="67.952" fill="#fff"/>
    </clipPath>
  </defs>
  <g id="Group_10851" data-name="Group 10851" clip-path="url(#clip-path)">
    <path id="Path_46821" data-name="Path 46821" d="M481.616,488.29l-.249-.053c-.359-.185-.759-.272-1.13-.424a14.157,14.157,0,0,1-1.631-.741,12.674,12.674,0,0,1-2.446-1.843,10.808,10.808,0,0,1-2.331-3.2,11.931,11.931,0,0,1-.959-7.7c.133-.675.438-1.3.527-1.981.106-.06.059-.165.076-.252a9.5,9.5,0,0,0,.882-1.419,11.152,11.152,0,0,1,5.963-4.955,11.828,11.828,0,0,1,14.9,6.292,12.422,12.422,0,0,1,.939,3.478,14.248,14.248,0,0,1,0,2.857l-.021.267a1.341,1.341,0,0,0-.073.2,11.892,11.892,0,0,1-5.179,7.868,11.53,11.53,0,0,1-4.855,1.79,11.952,11.952,0,0,1-4.4-.191m-2.171-13.7v0q-1.365,0-2.731,0c-.133,0-.285,0-.331.162s.111.2.2.266c.657.5,1.356.947,2.01,1.457.79.616,1.617,1.183,2.431,1.767a.3.3,0,0,1,.1.39q-.484,1.435-.96,2.872-.389,1.177-.766,2.358c-.032.1-.064.208.039.288a.224.224,0,0,0,.287-.014c.6-.4,1.178-.841,1.756-1.266.921-.678,1.868-1.325,2.771-2.027.159-.124.264-.058.393.037q1.552,1.135,3.108,2.262c.391.284.774.579,1.178.842.1.064.239.2.4.059s.059-.3.01-.448c-.439-1.361-.885-2.719-1.316-4.082-.381-1.208-.374-1.211.648-1.936,1.155-.819,2.313-1.634,3.464-2.457.136-.1.365-.19.3-.4s-.31-.126-.476-.127c-1.716-.006-3.431-.009-5.146,0a.481.481,0,0,1-.526-.339c-.41-.9-.58-1.877-.923-2.8-.274-.737-.5-1.52-.707-2.293-.035-.128-.056-.282-.231-.285s-.187.163-.228.286c-.215.65-.43,1.3-.641,1.952-.32.99-.675,1.97-.933,2.976-.1.4-.247.512-.62.505-.85-.016-1.7,0-2.552,0" transform="translate(-430.271 -423.321)" fill="#fff"/>
    <path id="Path_46822" data-name="Path 46822" d="M296.749,207.562l-.034-.175a2.66,2.66,0,0,0,0-.357,11.336,11.336,0,0,1,.747-5.965,6.847,6.847,0,0,1,4.354-4.2,8.024,8.024,0,0,1,2.992-.255,6.248,6.248,0,0,1,4.142,1.93,7.8,7.8,0,0,1,1.863,3.317,12.678,12.678,0,0,1,.1,6.708,10.523,10.523,0,0,1-.5,1.743,12.53,12.53,0,0,1-1.017,1.823A8.974,8.974,0,0,1,307.826,214c-.6.521-1.312.844-1.939,1.307l-.04-.011a13.751,13.751,0,0,1-1.557.348,5.96,5.96,0,0,1-4.3-1.811,10.217,10.217,0,0,1-3.172-6.114.85.85,0,0,0-.065-.161" transform="translate(-270.027 -178.965)" fill="#fff"/>
    <path id="Path_46823" data-name="Path 46823" d="M222.77,419.17H211.841c-.615,0-.8-.18-.791-.8a15.459,15.459,0,0,1,.424-3.853,2.914,2.914,0,0,1,2.064-2.155,15.621,15.621,0,0,0,4.06-1.717,20.938,20.938,0,0,0,1.922-1.375c.184-.15.388-.277.574-.424a.7.7,0,0,1,.936.007,10.38,10.38,0,0,0,2.6,1.436,7.258,7.258,0,0,0,5.914-.414,5.109,5.109,0,0,0,1.5-1.011.8.8,0,0,1,1.073-.018c.634.464,1.259.941,1.895,1.4a13.249,13.249,0,0,0,4.451,2.022,7.375,7.375,0,0,1,1.42.606c.2.1.3.32,0,.468a14.363,14.363,0,0,0-2.679,1.862,15.6,15.6,0,0,0-2.556,2.924,1.757,1.757,0,0,0-.35.641c-.069.423-.313.394-.6.394q-5.465,0-10.929,0Z" transform="translate(-192.138 -372.034)" fill="#fff"/>
  </g>
</svg>
