<svg id="Group_10853" data-name="Group 10853" xmlns="http://www.w3.org/2000/svg" width="51.773" height="39.338" viewBox="0 0 51.773 39.338">
  <path id="Icon_ionic-ios-person" data-name="Icon ionic-ios-person" d="M40.213,39.329c-.67-2.959-4.494-4.4-5.816-4.867a43.36,43.36,0,0,0-4.848-.931A4.926,4.926,0,0,1,27.307,32.5c-.372-.447-.149-4.587-.149-4.587a13.8,13.8,0,0,0,1.061-2.019A26.044,26.044,0,0,0,29,22.366s.763,0,1.033-1.34c.288-1.461.744-2.029.689-3.117-.056-1.07-.642-1.042-.642-1.042a16.314,16.314,0,0,0,.633-4.774C30.8,8.269,27.8,4.5,22.375,4.5c-5.5,0-8.43,3.769-8.347,7.593a17.017,17.017,0,0,0,.623,4.774s-.586-.028-.642,1.042c-.056,1.089.4,1.656.689,3.117.261,1.34,1.033,1.34,1.033,1.34a26.045,26.045,0,0,0,.782,3.527,13.8,13.8,0,0,0,1.061,2.019s.223,4.141-.149,4.587a4.926,4.926,0,0,1-2.243,1.033,43.36,43.36,0,0,0-4.848.931c-1.321.465-5.146,1.908-5.816,4.867a.744.744,0,0,0,.735.9H39.487A.742.742,0,0,0,40.213,39.329Z" transform="translate(11.543 -1.501)" fill="#fff"/>
  <path id="Path_46824" data-name="Path 46824" d="M23.289,3.282l.015.155c.046.3.1.594.135.892A.188.188,0,0,0,23.6,4.5a16.287,16.287,0,0,1,2.485.909,11.7,11.7,0,0,1,1.306.664c.331.219.453.229.77-.008.254-.189.507-.378.769-.556.621-.422,1.227-.866,1.836-1.3a.928.928,0,0,1,1.382.117c.084.087.172.17.257.255q1.357,1.35,2.715,2.7A.948.948,0,0,1,35.3,8.5c-.1.144-.208.286-.309.432q-.88,1.261-1.782,2.507a.294.294,0,0,0-.021.372,14.765,14.765,0,0,1,1.624,3.927c.029.114.053.25.226.278.345.056.688.167,1.026.208.522.064,1.041.138,1.554.241a3.406,3.406,0,0,1,1.461.382l.011.007a1.134,1.134,0,0,1,.236.616c0,1.484,0,2.969-.005,4.453a.837.837,0,0,1-.788.922c-1.128.2-2.258.382-3.387.574-.121.021-.266.005-.3.183s-.148.135-.265.089c-.307-.121-.611-.252-.924-.354-.5-.162-.5-.153-.411-.655l.02-.2c.151-.28.3-.56.657-.626.657-.123,1.314-.249,1.973-.364.492-.086.985-.161,1.479-.232.153-.022.189-.095.187-.241q-.01-1.282,0-2.565c0-.153-.035-.217-.2-.25-.649-.124-1.3-.208-1.957-.3-.319-.046-.629-.161-.955-.186L34.29,17.7a.315.315,0,0,0-.092-.039,1.059,1.059,0,0,1-.979-.968,14.052,14.052,0,0,0-.915-2.765c-.273-.64-.655-1.219-.975-1.833a1.039,1.039,0,0,1,.1-1.2c.628-.871,1.238-1.755,1.871-2.622.106-.145.079-.211-.027-.317q-.911-.9-1.812-1.813a.207.207,0,0,0-.324-.027c-.882.635-1.772,1.258-2.654,1.892a.963.963,0,0,1-1.133.059,21.007,21.007,0,0,0-2.858-1.416,8.737,8.737,0,0,0-1.808-.521,1.1,1.1,0,0,1-.885-.868,3.514,3.514,0,0,0-.15-.584l-.02-.1a.251.251,0,0,0,.008-.051c-.047-.9-.283-1.767-.407-2.653-.016-.112-.1-.1-.174-.1-.873,0-1.745.007-2.618.005-.158,0-.215.05-.241.216-.17,1.054-.367,2.1-.533,3.16a.992.992,0,0,1-.826.874c-.659.165-1.315.344-1.955.574a18.076,18.076,0,0,0-2.876,1.385.875.875,0,0,1-1-.019c-.346-.233-.695-.465-1.042-.7-.018-.05-.065-.044-.1-.054-.536-.4-1.075-.791-1.607-1.195-.111-.085-.181-.092-.282.011q-.927.937-1.864,1.864a.168.168,0,0,0-.019.263c.169.222.344.441.5.67.465.67.92,1.345,1.41,2a.945.945,0,0,1,.051,1.027c-.159.309-.338.607-.509.909l-.048.1a12.788,12.788,0,0,0-1.259,2.954c-.114.371-.215.745-.329,1.116a.837.837,0,0,1-.661.589c-.552.124-1.114.191-1.667.319-.515.118-1.054.136-1.579.227-.134.023-.241.034-.239.224.011.873.008,1.746,0,2.619,0,.136.038.193.182.216,1.011.165,2.02.348,3.032.51a1.02,1.02,0,0,1,.956.83c.195.581.287,1.187.5,1.768A24.254,24.254,0,0,0,7.97,27.449a.851.851,0,0,1-.014.865c-.264.425-.565.828-.855,1.237-.348.492-.7.98-1.05,1.47a.274.274,0,0,0,.02.391c.611.605,1.226,1.206,1.834,1.814.1.1.18.134.277.018a3.184,3.184,0,0,1,.662-.5c.669-.469,1.332-.947,2-1.417a.9.9,0,0,1,.97-.029,10.483,10.483,0,0,0,1.157.608.079.079,0,0,0,.046.016c.119.078.234.167.359.234a16.686,16.686,0,0,0,3.468,1.25.888.888,0,0,1,.691.775c.173,1.053.356,2.1.526,3.158.03.183.108.231.289.228.682-.012,1.363-.006,2.045-.005.709,0,.709,0,.817-.7a.481.481,0,0,0,0-.077l.019-.1c.04-.21.091-.419.119-.631.078-.589.236-1.166.277-1.761l.011-.249a1.3,1.3,0,0,1,.97-.7,7.964,7.964,0,0,0,.948-.286l.093,0a8.919,8.919,0,0,0,.607,1.5c.064.117.01.146-.089.172q-.363.095-.723.2c-.108.031-.215.065-.2.216a3.482,3.482,0,0,1-.108.922c-.137.842-.286,1.682-.423,2.524a.935.935,0,0,1-.883.739c-1.477-.028-2.954-.01-4.432-.014a.823.823,0,0,1-.9-.726c-.184-1-.373-2-.511-3.007a.777.777,0,0,0-.662-.794,13.409,13.409,0,0,1-3.724-1.6.277.277,0,0,0-.353-.006q-1.333.965-2.678,1.915c-.553.391-.931.364-1.341-.05q-1.466-1.478-2.947-2.942a1.037,1.037,0,0,1-.33-1.207,3.886,3.886,0,0,1,.21-.393l0,0c.138-.025.184-.149.251-.244.513-.721,1.009-1.454,1.54-2.162a.483.483,0,0,0,.028-.641,8.5,8.5,0,0,1-.555-1.052A15.805,15.805,0,0,1,4.391,23.5a.254.254,0,0,0-.247-.21q-1.7-.278-3.389-.579A.832.832,0,0,1,0,21.837Q0,19.594.006,17.351A.821.821,0,0,1,.713,16.5c.233-.06.467-.08.7-.119.9-.151,1.8-.308,2.7-.452a.372.372,0,0,0,.353-.322,17.2,17.2,0,0,1,1.663-4,.294.294,0,0,0-.015-.38c-.209-.274-.427-.544-.61-.834-.389-.616-.833-1.195-1.277-1.769a1.044,1.044,0,0,1,.087-1.45c.388-.352.743-.742,1.112-1.115l.011-.012.4-.4.009-.015c.43-.391.835-.808,1.233-1.232L7.1,4.393c.044-.04.091-.078.133-.119a.949.949,0,0,1,1.52-.038,1.213,1.213,0,0,0,.2.157c.645.347,1.194.834,1.8,1.235a4.836,4.836,0,0,1,.582.392c.127.114.232.159.381.069a2.3,2.3,0,0,1,.265-.153c.817-.358,1.611-.769,2.453-1.071l.092-.03c.435-.125.869-.251,1.3-.374a.239.239,0,0,0,.191-.213c.19-1.137.387-2.272.574-3.409a.858.858,0,0,1,.89-.83q2.253-.018,4.506,0a.834.834,0,0,1,.823.663c.051.209.076.423.116.635.125.658.177,1.329.356,1.977" transform="translate(0 0)" fill="#fff"/>
</svg>
