<svg id="Full_color" data-name="Full color" xmlns="http://www.w3.org/2000/svg" width="271.341" height="93.675" viewBox="0 0 271.341 93.675">
  <g id="Group_3739" data-name="Group 3739" transform="translate(143.194 0)">
    <path id="Path_42080" data-name="Path 42080" d="M307.305,327.055a3.009,3.009,0,0,1-1.072-.195,3.27,3.27,0,0,1-1.866-4.149l13.089-37.24a3.142,3.142,0,0,1,2.938-2.13,3.009,3.009,0,0,1,1.072.195,3.11,3.11,0,0,1,1.761,1.678,3.32,3.32,0,0,1,.1,2.479l-13.089,37.24A3.145,3.145,0,0,1,307.305,327.055Z" transform="translate(-281.118 -233.387)" fill="#fff"/>
    <path id="Path_42081" data-name="Path 42081" d="M339.945,292.747a3.527,3.527,0,0,1-1.072-.174,3.007,3.007,0,0,1-1.761-1.5,2.692,2.692,0,0,1-.1-2.221L366.5,213.5a3.137,3.137,0,0,1,2.938-1.915,3.526,3.526,0,0,1,1.072.174,3.007,3.007,0,0,1,1.761,1.5,2.692,2.692,0,0,1,.1,2.221l-29.491,75.344A3.127,3.127,0,0,1,339.945,292.747Z" transform="translate(-291.034 -211.59)" fill="#fff"/>
    <path id="Path_42082" data-name="Path 42082" d="M274.185,299.346a3.126,3.126,0,0,1-2.938-4.205l6.788-18.7a3.13,3.13,0,0,1,4.01-1.873,3.14,3.14,0,0,1,1.866,4.017l-6.788,18.7A3.142,3.142,0,0,1,274.185,299.346Z" transform="translate(-271.057 -230.665)" fill="#fff"/>
    <path id="Path_42083" data-name="Path 42083" d="M429.745,335.222a3.162,3.162,0,0,1-1.072-.188,3.083,3.083,0,0,1-1.761-1.622,3.125,3.125,0,0,1-.1-2.4l6.788-18.742a3.127,3.127,0,0,1,4.01-1.88,3.082,3.082,0,0,1,1.761,1.622,3.125,3.125,0,0,1,.1,2.4l-6.788,18.742A3.142,3.142,0,0,1,429.745,335.222Z" transform="translate(-318.314 -241.547)" fill="#fff"/>
    <circle id="Ellipse_42" data-name="Ellipse 42" cx="3.14" cy="3.14" r="3.14" transform="translate(22.921 43.673)" fill="#fff"/>
    <circle id="Ellipse_43" data-name="Ellipse 43" cx="3.14" cy="3.14" r="3.14" transform="translate(22.921 56.177)" fill="#fff"/>
    <circle id="Ellipse_44" data-name="Ellipse 44" cx="3.14" cy="3.14" r="3.14" transform="translate(36.337 87.388)" fill="#fff"/>
    <circle id="Ellipse_45" data-name="Ellipse 45" cx="3.14" cy="3.14" r="3.14" transform="translate(36.337 74.905)" fill="#fff"/>
    <path id="Path_42084" data-name="Path 42084" d="M335.716,314.544a3.13,3.13,0,0,1-2.938-1.977l-9.531-25.2a2.87,2.87,0,0,1,.1-2.3,3.055,3.055,0,0,1,1.761-1.553,3.3,3.3,0,0,1,1.072-.181,3.13,3.13,0,0,1,2.938,1.977l9.531,25.2a2.87,2.87,0,0,1-.1,2.3,3.055,3.055,0,0,1-1.761,1.553,3.332,3.332,0,0,1-1.072.181Z" transform="translate(-286.854 -233.387)" fill="#fff"/>
    <path id="Path_42085" data-name="Path 42085" d="M300.186,324.3a3.133,3.133,0,0,1-2.938-2.026l-16.2-43.743a3.066,3.066,0,0,1,1.866-3.94,3.145,3.145,0,0,1,4.01,1.838l16.2,43.743a3.066,3.066,0,0,1-1.866,3.941,3.134,3.134,0,0,1-1.072.188Z" transform="translate(-274.034 -230.671)" fill="#fff"/>
    <path id="Path_42086" data-name="Path 42086" d="M415.3,305.274a3.132,3.132,0,0,1-2.938-1.991l-33.014-87.611a3,3,0,0,1,1.866-3.871,3.3,3.3,0,0,1,1.072-.181,3.132,3.132,0,0,1,2.938,1.991l33.014,87.611a2.9,2.9,0,0,1-.1,2.311,3.066,3.066,0,0,1-1.761,1.559,3.335,3.335,0,0,1-1.072.181Z" transform="translate(-303.897 -211.599)" fill="#fff"/>
    <path id="Path_42087" data-name="Path 42087" d="M446.3,335.222a3.132,3.132,0,0,1-2.938-2.068l-6.788-18.742a3.128,3.128,0,1,1,5.876-2.144l6.788,18.742a3.147,3.147,0,0,1-1.866,4.024,3.309,3.309,0,0,1-1.072.188Z" transform="translate(-321.283 -241.547)" fill="#fff"/>
  </g>
  <g id="Group_3742" data-name="Group 3742" transform="translate(0 61.962)">
    <g id="Group_3740" data-name="Group 3740" transform="translate(0 0)">
      <path id="Path_42088" data-name="Path 42088" d="M68.409,311.765a4.689,4.689,0,0,1-.912-.111,3,3,0,0,1-.989-.418,2.615,2.615,0,0,1-.8-.849,2.735,2.735,0,0,1-.327-1.434,3.16,3.16,0,0,1,.313-1.483,2.929,2.929,0,0,1,.808-.975,3.22,3.22,0,0,1,1.093-.543,4.452,4.452,0,0,1,1.191-.16H71.4v4.7a1.653,1.653,0,0,0,.216.975c.139.188.46.285.954.285h.4a.589.589,0,0,1,.661.668.77.77,0,0,1-.153.564.718.718,0,0,1-.5.153h-.557a4.377,4.377,0,0,1-.815-.077,2,2,0,0,1-.689-.265,1.705,1.705,0,0,1-.515-.508,1.875,1.875,0,0,1-.278-.815,4.943,4.943,0,0,1-.815.216A5.941,5.941,0,0,1,68.409,311.765ZM66.7,308.827a1.484,1.484,0,0,0,.439,1.114,1.927,1.927,0,0,0,1.392.425,3.974,3.974,0,0,0,.78-.084,4.176,4.176,0,0,0,.752-.216v-2.91H68.61a2.233,2.233,0,0,0-1.351.4A1.444,1.444,0,0,0,66.7,308.827Zm.362-6.05a.836.836,0,0,1,.258-.62.825.825,0,0,1,.62-.258.836.836,0,0,1,.62.258.851.851,0,0,1,.258.62.836.836,0,0,1-.258.62.825.825,0,0,1-.62.258.88.88,0,0,1-.877-.877Zm2.137,0a.836.836,0,0,1,.258-.62.825.825,0,0,1,.62-.258.836.836,0,0,1,.62.258.852.852,0,0,1,.258.62.836.836,0,0,1-.258.62.825.825,0,0,1-.62.258.88.88,0,0,1-.877-.877Z" transform="translate(-65.38 -300.988)" fill="#fff"/>
      <path id="Path_42089" data-name="Path 42089" d="M75.991,317.435a.584.584,0,0,1-.661-.661.762.762,0,0,1,.153-.557.719.719,0,0,1,.5-.146h2.437a.584.584,0,0,1,.661.661.762.762,0,0,1-.153.557.719.719,0,0,1-.5.146Z" transform="translate(-68.403 -305.293)" fill="#fff"/>
      <path id="Path_42090" data-name="Path 42090" d="M79.481,317.435a.584.584,0,0,1-.661-.661.762.762,0,0,1,.153-.557.719.719,0,0,1,.5-.146h2.437a.584.584,0,0,1,.661.661.762.762,0,0,1-.153.557.719.719,0,0,1-.5.146Z" transform="translate(-69.463 -305.293)" fill="#fff"/>
      <path id="Path_42091" data-name="Path 42091" d="M82.981,317.435a.584.584,0,0,1-.661-.661.761.761,0,0,1,.153-.557.719.719,0,0,1,.5-.146h2.437a.584.584,0,0,1,.661.661.762.762,0,0,1-.153.557.719.719,0,0,1-.5.146Z" transform="translate(-70.526 -305.293)" fill="#fff"/>
      <path id="Path_42092" data-name="Path 42092" d="M86.481,317.435a.584.584,0,0,1-.661-.661.761.761,0,0,1,.153-.557.719.719,0,0,1,.5-.146h2.437a.584.584,0,0,1,.661.661.762.762,0,0,1-.153.557.719.719,0,0,1-.5.146Z" transform="translate(-71.59 -305.293)" fill="#fff"/>
      <path id="Path_42093" data-name="Path 42093" d="M89.981,315.266a.584.584,0,0,1-.661-.661.762.762,0,0,1,.153-.557.719.719,0,0,1,.5-.146h1.1a6.111,6.111,0,0,0,.675-.035,1.03,1.03,0,0,0,.466-.16.739.739,0,0,0,.278-.362,1.829,1.829,0,0,0,.09-.647V308.93h1.351v3.161a4.849,4.849,0,0,0,.056.745,1.4,1.4,0,0,0,.223.571,1.151,1.151,0,0,0,.446.362,1.638,1.638,0,0,0,.71.132.584.584,0,0,1,.661.661.759.759,0,0,1-.16.557.719.719,0,0,1-.5.146,1.627,1.627,0,0,1-1.037-.306,1.464,1.464,0,0,1-.529-.766,1.46,1.46,0,0,1-.933.87,5.27,5.27,0,0,1-1.553.195H89.981Zm1.295,2.485a.836.836,0,0,1,.258-.62.825.825,0,0,1,.62-.258.836.836,0,0,1,.62.258.851.851,0,0,1,.258.62.836.836,0,0,1-.258.62.825.825,0,0,1-.62.258.836.836,0,0,1-.62-.258A.875.875,0,0,1,91.276,317.751Zm2.144,0a.836.836,0,0,1,.258-.62.825.825,0,0,1,.62-.258.836.836,0,0,1,.62.258.852.852,0,0,1,.258.62.876.876,0,0,1-1.5.62A.847.847,0,0,1,93.421,317.751Z" transform="translate(-72.653 -303.124)" fill="#fff"/>
      <path id="Path_42094" data-name="Path 42094" d="M97.731,312.9a.584.584,0,0,1-.661-.661.762.762,0,0,1,.153-.557.719.719,0,0,1,.5-.146h2.569V301.16h1.351v11.752H97.731Z" transform="translate(-75.007 -300.763)" fill="#fff"/>
      <path id="Path_42095" data-name="Path 42095" d="M110.392,312.195a.762.762,0,0,1-.153.557.719.719,0,0,1-.5.146h-.425a4.1,4.1,0,0,1-.961-.1,1.719,1.719,0,0,1-.738-.369,1.829,1.829,0,0,1-.48-.7,2.925,2.925,0,0,1-.174-1.093V301.16h1.351v9.113a1.679,1.679,0,0,0,.216.982,1.185,1.185,0,0,0,.954.285h.265A.574.574,0,0,1,110.392,312.195Z" transform="translate(-78.012 -300.763)" fill="#fff"/>
      <path id="Path_42096" data-name="Path 42096" d="M120.757,315.335a2.314,2.314,0,0,1-1.086-.244,1.742,1.742,0,0,1-.738-.842v-.035a2.343,2.343,0,0,1-.912.982,2.932,2.932,0,0,1-1.5.355,5,5,0,0,1-1.566-.265,5.754,5.754,0,0,1-1.629-.891,2.229,2.229,0,0,1-.439.515,1.481,1.481,0,0,1-.466.278,1.846,1.846,0,0,1-.508.111c-.174.014-.362.028-.557.028h-.71a.586.586,0,0,1-.661-.661.762.762,0,0,1,.153-.557.719.719,0,0,1,.5-.146h.675a1.7,1.7,0,0,0,.411-.049,1.118,1.118,0,0,0,.425-.216,2.048,2.048,0,0,0,.418-.453,3.437,3.437,0,0,0,.39-.787,8.017,8.017,0,0,1,.8-1.706,4.242,4.242,0,0,1,.856-1,2.317,2.317,0,0,1,.891-.473,3.619,3.619,0,0,1,.9-.118,2.679,2.679,0,0,1,2.061.912,3.407,3.407,0,0,1,.613,1.037,3.913,3.913,0,0,1,.223,1.344c0,.077,0,.153-.007.223a2.089,2.089,0,0,0-.007.209,1.654,1.654,0,0,0,.487.8,1.518,1.518,0,0,0,1,.272.586.586,0,0,1,.661.661.793.793,0,0,1-.153.564A.747.747,0,0,1,120.757,315.335Zm-2.813-2.917a2.436,2.436,0,0,0-.1-.71,1.789,1.789,0,0,0-.313-.606,1.609,1.609,0,0,0-.5-.418,1.44,1.44,0,0,0-.689-.16,1.724,1.724,0,0,0-1.267.606,5.983,5.983,0,0,0-1.086,2.137,6.747,6.747,0,0,0,1.211.634,3.277,3.277,0,0,0,1.225.237,1.57,1.57,0,0,0,1.114-.4A1.758,1.758,0,0,0,117.945,312.418Z" transform="translate(-78.929 -303.193)" fill="#fff"/>
      <path id="Path_42097" data-name="Path 42097" d="M125.191,312.9a.584.584,0,0,1-.661-.661.762.762,0,0,1,.153-.557.719.719,0,0,1,.5-.146h2.569V301.16H129.1v11.752h-3.913Z" transform="translate(-83.349 -300.763)" fill="#fff"/>
      <path id="Path_42098" data-name="Path 42098" d="M135.771,301.15V312.9H134.42V301.15Z" transform="translate(-86.354 -300.76)" fill="#fff"/>
      <path id="Path_42099" data-name="Path 42099" d="M147.679,311.765a4.689,4.689,0,0,1-.912-.111,3,3,0,0,1-.989-.418,2.615,2.615,0,0,1-.8-.849,2.735,2.735,0,0,1-.327-1.434,3.16,3.16,0,0,1,.313-1.483,2.929,2.929,0,0,1,.808-.975,3.22,3.22,0,0,1,1.093-.543,4.451,4.451,0,0,1,1.191-.16h2.618v4.7a1.653,1.653,0,0,0,.216.975c.139.188.46.285.954.285h.4a.589.589,0,0,1,.661.668.77.77,0,0,1-.153.564.718.718,0,0,1-.5.153h-.557a4.377,4.377,0,0,1-.815-.077,2,2,0,0,1-.689-.265,1.706,1.706,0,0,1-.515-.508,1.875,1.875,0,0,1-.278-.815,4.944,4.944,0,0,1-.815.216A5.942,5.942,0,0,1,147.679,311.765Zm-1.713-2.938a1.484,1.484,0,0,0,.439,1.114,1.927,1.927,0,0,0,1.392.425,3.973,3.973,0,0,0,.78-.084,4.176,4.176,0,0,0,.752-.216v-2.91H147.88a2.233,2.233,0,0,0-1.351.4A1.444,1.444,0,0,0,145.966,308.827Zm.362-6.05a.836.836,0,0,1,.258-.62.825.825,0,0,1,.62-.258.836.836,0,0,1,.62.258.851.851,0,0,1,.258.62.836.836,0,0,1-.258.62.825.825,0,0,1-.62.258.836.836,0,0,1-.62-.258A.863.863,0,0,1,146.328,302.777Zm2.144,0a.836.836,0,0,1,.258-.62.825.825,0,0,1,.62-.258.836.836,0,0,1,.62.258.851.851,0,0,1,.258.62.836.836,0,0,1-.258.62.825.825,0,0,1-.62.258.88.88,0,0,1-.877-.877Z" transform="translate(-89.462 -300.988)" fill="#fff"/>
      <path id="Path_42100" data-name="Path 42100" d="M155.261,317.435a.584.584,0,0,1-.661-.661.761.761,0,0,1,.153-.557.719.719,0,0,1,.5-.146h2.437a.584.584,0,0,1,.661.661.762.762,0,0,1-.153.557.719.719,0,0,1-.5.146Z" transform="translate(-92.484 -305.293)" fill="#fff"/>
      <path id="Path_42101" data-name="Path 42101" d="M158.761,317.435a.584.584,0,0,1-.661-.661.761.761,0,0,1,.153-.557.718.718,0,0,1,.5-.146h2.437a.584.584,0,0,1,.661.661.762.762,0,0,1-.153.557.719.719,0,0,1-.5.146Z" transform="translate(-93.548 -305.293)" fill="#fff"/>
      <path id="Path_42102" data-name="Path 42102" d="M162.251,317.435a.584.584,0,0,1-.661-.661.762.762,0,0,1,.153-.557.719.719,0,0,1,.5-.146h2.437a.584.584,0,0,1,.661.661.762.762,0,0,1-.153.557.719.719,0,0,1-.5.146Z" transform="translate(-94.608 -305.293)" fill="#fff"/>
      <path id="Path_42103" data-name="Path 42103" d="M165.751,315.266a.584.584,0,0,1-.661-.661.762.762,0,0,1,.153-.557.719.719,0,0,1,.5-.146h1.1a6.111,6.111,0,0,0,.675-.035,1.03,1.03,0,0,0,.466-.16.739.739,0,0,0,.278-.362,1.829,1.829,0,0,0,.091-.647V308.93h1.351v3.161a4.85,4.85,0,0,0,.056.745,1.4,1.4,0,0,0,.223.571,1.151,1.151,0,0,0,.446.362,1.638,1.638,0,0,0,.71.132.584.584,0,0,1,.661.661.76.76,0,0,1-.16.557.719.719,0,0,1-.5.146,1.627,1.627,0,0,1-1.037-.306,1.464,1.464,0,0,1-.529-.766,1.46,1.46,0,0,1-.933.87,5.271,5.271,0,0,1-1.553.195h-1.337Zm1.3,2.485a.836.836,0,0,1,.258-.62.825.825,0,0,1,.62-.258.836.836,0,0,1,.62.258.851.851,0,0,1,.258.62.836.836,0,0,1-.258.62.825.825,0,0,1-.62.258.836.836,0,0,1-.62-.258A.847.847,0,0,1,167.053,317.751Zm2.137,0a.836.836,0,0,1,.258-.62.825.825,0,0,1,.62-.258.836.836,0,0,1,.62.258.851.851,0,0,1,.258.62.876.876,0,0,1-1.5.62A.847.847,0,0,1,169.191,317.751Z" transform="translate(-95.671 -303.124)" fill="#fff"/>
      <path id="Path_42104" data-name="Path 42104" d="M183.607,315.335a2.315,2.315,0,0,1-1.086-.244,1.742,1.742,0,0,1-.738-.842v-.035a2.343,2.343,0,0,1-.912.982,2.932,2.932,0,0,1-1.5.355,5,5,0,0,1-1.566-.265,5.754,5.754,0,0,1-1.629-.891,2.229,2.229,0,0,1-.439.515,1.481,1.481,0,0,1-.466.278,1.846,1.846,0,0,1-.508.111c-.174.014-.362.028-.557.028h-.71a.586.586,0,0,1-.661-.661.762.762,0,0,1,.153-.557.719.719,0,0,1,.5-.146h.675a1.7,1.7,0,0,0,.411-.049A1.118,1.118,0,0,0,175,313.7a2.048,2.048,0,0,0,.418-.453,3.437,3.437,0,0,0,.39-.787,8.016,8.016,0,0,1,.8-1.706,4.243,4.243,0,0,1,.856-1,2.317,2.317,0,0,1,.891-.473,3.619,3.619,0,0,1,.9-.118,2.679,2.679,0,0,1,2.061.912,3.408,3.408,0,0,1,.613,1.037,3.913,3.913,0,0,1,.223,1.344c0,.077,0,.153-.007.223s-.007.139-.007.209a1.654,1.654,0,0,0,.487.8,1.518,1.518,0,0,0,1,.272.586.586,0,0,1,.661.661.793.793,0,0,1-.153.564A.747.747,0,0,1,183.607,315.335Zm-2.813-2.917a2.436,2.436,0,0,0-.1-.71,1.789,1.789,0,0,0-.313-.606,1.609,1.609,0,0,0-.5-.418,1.44,1.44,0,0,0-.689-.16,1.724,1.724,0,0,0-1.267.606,5.983,5.983,0,0,0-1.086,2.137,6.747,6.747,0,0,0,1.211.634,3.276,3.276,0,0,0,1.225.237,1.57,1.57,0,0,0,1.114-.4A1.787,1.787,0,0,0,180.795,312.418Z" transform="translate(-98.022 -303.193)" fill="#fff"/>
      <path id="Path_42105" data-name="Path 42105" d="M188.041,317.435a.584.584,0,0,1-.661-.661.761.761,0,0,1,.153-.557.719.719,0,0,1,.5-.146h2.437a.584.584,0,0,1,.661.661.762.762,0,0,1-.153.557.719.719,0,0,1-.5.146Z" transform="translate(-102.443 -305.293)" fill="#fff"/>
      <path id="Path_42106" data-name="Path 42106" d="M191.541,317.435a.584.584,0,0,1-.661-.661.762.762,0,0,1,.153-.557.719.719,0,0,1,.5-.146h2.437a.584.584,0,0,1,.661.661.762.762,0,0,1-.153.557.719.719,0,0,1-.5.146Z" transform="translate(-103.506 -305.293)" fill="#fff"/>
      <path id="Path_42107" data-name="Path 42107" d="M195.041,315.266a.584.584,0,0,1-.661-.661.762.762,0,0,1,.153-.557.719.719,0,0,1,.5-.146H197.6V308.93h1.351v6.335Zm.654,2.485a.836.836,0,0,1,.258-.62.825.825,0,0,1,.62-.258.836.836,0,0,1,.62.258.851.851,0,0,1,.258.62.836.836,0,0,1-.258.62.825.825,0,0,1-.62.258.836.836,0,0,1-.62-.258A.847.847,0,0,1,195.7,317.751Zm2.137,0a.836.836,0,0,1,.258-.62.825.825,0,0,1,.62-.258.836.836,0,0,1,.62.258.851.851,0,0,1,.258.62.836.836,0,0,1-.258.62.825.825,0,0,1-.62.258.836.836,0,0,1-.62-.258A.875.875,0,0,1,197.833,317.751Z" transform="translate(-104.569 -303.124)" fill="#fff"/>
      <path id="Path_42108" data-name="Path 42108" d="M209.367,313.288a1.707,1.707,0,0,1-.543,1.3,2.224,2.224,0,0,1-1.58.508H203.31v-1.365h3.815c.376,0,.606-.056.71-.174a.557.557,0,0,0,.146-.39,1.083,1.083,0,0,0-.063-.348,3.589,3.589,0,0,0-.32-.578c-.167-.265-.418-.634-.738-1.121s-.766-1.135-1.323-1.956l1.267-.787c.439.759.822,1.392,1.142,1.908s.592.954.8,1.316a7.7,7.7,0,0,1,.466.933A1.988,1.988,0,0,1,209.367,313.288Z" transform="translate(-107.282 -302.957)" fill="#fff"/>
      <path id="Path_42109" data-name="Path 42109" d="M218.272,312.195a.762.762,0,0,1-.153.557.719.719,0,0,1-.5.146h-.425a4.1,4.1,0,0,1-.961-.1,1.719,1.719,0,0,1-.738-.369,1.829,1.829,0,0,1-.48-.7,2.925,2.925,0,0,1-.174-1.093V301.16h1.351v9.113a1.679,1.679,0,0,0,.216.982,1.186,1.186,0,0,0,.954.285h.265A.577.577,0,0,1,218.272,312.195Z" transform="translate(-110.785 -300.763)" fill="#fff"/>
      <path id="Path_42110" data-name="Path 42110" d="M218.531,313.431a.584.584,0,0,1-.661-.661.762.762,0,0,1,.153-.557.719.719,0,0,1,.5-.146h3.934a2.085,2.085,0,0,0,1.009-.216.837.837,0,0,0,.4-.822,1.727,1.727,0,0,0-.4-.982,6.9,6.9,0,0,0-1.072-1.121,14.946,14.946,0,0,0-1.525-1.121,17.033,17.033,0,0,0-1.775-1,1.481,1.481,0,0,1,.1-.4,3.156,3.156,0,0,1,.181-.376,1.686,1.686,0,0,1,.209-.306,1.5,1.5,0,0,1,.174-.181l6.022-2.653v1.337l-4.839,2.137a17.562,17.562,0,0,1,1.956,1.316,10.51,10.51,0,0,1,1.316,1.232,4.115,4.115,0,0,1,.731,1.142,2.848,2.848,0,0,1,.223,1.044,3.141,3.141,0,0,1-.1.759,1.915,1.915,0,0,1-.4.759,2.226,2.226,0,0,1-.842.578,3.626,3.626,0,0,1-1.4.23h-3.885Z" transform="translate(-111.705 -301.289)" fill="#fff"/>
      <path id="Path_42111" data-name="Path 42111" d="M240.453,300.98v11.752H231.11v-1.365h3.7v-6.273h1.351v6.273h2.945v-10.38h1.344Zm-3.718,2.653h-3.015v-.738h.738a1.578,1.578,0,0,1-.23-.842,1.606,1.606,0,0,1,.118-.634,1.254,1.254,0,0,1,.313-.453,1.445,1.445,0,0,1,.453-.278,1.328,1.328,0,0,1,.515-.1,3.267,3.267,0,0,1,.487.035.627.627,0,0,1,.306.118v.759a1.729,1.729,0,0,0-.71-.146.7.7,0,0,0-.578.23.811.811,0,0,0-.181.508.823.823,0,0,0,.216.571.806.806,0,0,0,.641.237h.919v.731Z" transform="translate(-115.727 -300.59)" fill="#fff"/>
      <path id="Path_42112" data-name="Path 42112" d="M249.191,301.15V312.9H247.84V301.15Z" transform="translate(-120.81 -300.76)" fill="#fff"/>
    </g>
    <g id="Group_3741" data-name="Group 3741" transform="translate(0.641 20.378)">
      <path id="Path_42113" data-name="Path 42113" d="M69.231,330.842H66.3v-.982h7.032v.982H70.4v7.8h-1.17Z" transform="translate(-66.3 -329.86)" fill="#fff"/>
      <path id="Path_42114" data-name="Path 42114" d="M77.54,329.86h1.044v3.356h.028a1.552,1.552,0,0,1,.348-.494,2.056,2.056,0,0,1,.5-.341,2.614,2.614,0,0,1,.571-.188,2.887,2.887,0,0,1,.585-.063,2.683,2.683,0,0,1,1.044.174,1.729,1.729,0,0,1,.675.48,1.762,1.762,0,0,1,.362.731,3.965,3.965,0,0,1,.1.94v4.184H81.759v-4.31a1.251,1.251,0,0,0-.341-.933,1.274,1.274,0,0,0-.947-.341,2.125,2.125,0,0,0-.828.146,1.5,1.5,0,0,0-.585.418,1.807,1.807,0,0,0-.348.634,2.634,2.634,0,0,0-.118.794v3.592H77.547V329.86Z" transform="translate(-69.715 -329.86)" fill="#fff"/>
      <path id="Path_42115" data-name="Path 42115" d="M92.652,337.624a2.582,2.582,0,0,1-.926,1.615,2.837,2.837,0,0,1-1.8.557,3.226,3.226,0,0,1-1.323-.251,2.634,2.634,0,0,1-.94-.7,2.923,2.923,0,0,1-.571-1.058,5.073,5.073,0,0,1-.216-1.344,3.879,3.879,0,0,1,.223-1.323,3.16,3.16,0,0,1,.62-1.051,2.814,2.814,0,0,1,2.144-.933,2.631,2.631,0,0,1,1.406.348,2.747,2.747,0,0,1,.9.891,3.507,3.507,0,0,1,.466,1.184,5.342,5.342,0,0,1,.1,1.218H87.98a2.7,2.7,0,0,0,.1.794,1.839,1.839,0,0,0,.355.661,1.745,1.745,0,0,0,.627.459,2.088,2.088,0,0,0,.9.174,1.867,1.867,0,0,0,1.086-.306,1.47,1.47,0,0,0,.564-.933h1.044Zm-1.01-1.775a2.038,2.038,0,0,0-.167-.7,1.778,1.778,0,0,0-.954-.954,1.757,1.757,0,0,0-.717-.139,1.875,1.875,0,0,0-.731.139,1.674,1.674,0,0,0-.557.39,1.963,1.963,0,0,0-.369.571,2.078,2.078,0,0,0-.16.7Z" transform="translate(-72.552 -330.856)" fill="#fff"/>
      <path id="Path_42116" data-name="Path 42116" d="M102.02,329.86h5.772v.982h-4.6v2.792h4.038v.982H103.19v4.024h-1.17Z" transform="translate(-77.151 -329.86)" fill="#fff"/>
      <path id="Path_42117" data-name="Path 42117" d="M113.054,331.141H112.01V329.86h1.044Zm-1.044,1.142h1.044v6.363H112.01Z" transform="translate(-80.186 -329.86)" fill="#fff"/>
      <path id="Path_42118" data-name="Path 42118" d="M115.85,333.273h.982v1.009h.028a2.212,2.212,0,0,1,.856-.877,2.512,2.512,0,0,1,1.211-.285,2.684,2.684,0,0,1,1.044.174,1.729,1.729,0,0,1,.675.48,1.762,1.762,0,0,1,.362.731,3.965,3.965,0,0,1,.1.94v4.184h-1.044v-4.31a1.252,1.252,0,0,0-.341-.933,1.274,1.274,0,0,0-.947-.341,2.123,2.123,0,0,0-.828.146,1.5,1.5,0,0,0-.585.418,1.807,1.807,0,0,0-.348.634,2.634,2.634,0,0,0-.118.794v3.592h-1.044v-6.356Z" transform="translate(-81.353 -330.85)" fill="#fff"/>
      <path id="Path_42119" data-name="Path 42119" d="M131.16,339.609a1.465,1.465,0,0,1-.752.174.873.873,0,0,1-.647-.237,1,1,0,0,1-.237-.752,2.612,2.612,0,0,1-1,.752,3.3,3.3,0,0,1-1.239.237,3.432,3.432,0,0,1-.815-.1,1.852,1.852,0,0,1-.668-.313,1.552,1.552,0,0,1-.453-.557,2.122,2.122,0,0,1,.021-1.7,1.579,1.579,0,0,1,.487-.557,2.424,2.424,0,0,1,.689-.327,7.311,7.311,0,0,1,.794-.188c.285-.056.557-.1.822-.132a4.131,4.131,0,0,0,.682-.125,1.131,1.131,0,0,0,.466-.237.581.581,0,0,0,.174-.446,1.015,1.015,0,0,0-.132-.557.868.868,0,0,0-.334-.32,1.194,1.194,0,0,0-.453-.146,3.036,3.036,0,0,0-.5-.035,2.207,2.207,0,0,0-1.107.251,1.085,1.085,0,0,0-.48.954h-1.044a2.257,2.257,0,0,1,.244-1,1.864,1.864,0,0,1,.592-.661,2.4,2.4,0,0,1,.849-.362,4.315,4.315,0,0,1,1.009-.111,5.9,5.9,0,0,1,.856.063,2.253,2.253,0,0,1,.766.251,1.469,1.469,0,0,1,.557.536,1.715,1.715,0,0,1,.209.9v3.272a2.577,2.577,0,0,0,.042.543c.028.118.125.174.292.174a.963.963,0,0,0,.32-.063v.815Zm-1.7-3.258a1.21,1.21,0,0,1-.369.174,4.583,4.583,0,0,1-.466.1c-.167.028-.341.056-.522.077s-.362.049-.536.084-.334.077-.494.125a1.373,1.373,0,0,0-.4.2.982.982,0,0,0-.278.327,1.04,1.04,0,0,0-.1.494.852.852,0,0,0,.1.439.823.823,0,0,0,.272.285,1.094,1.094,0,0,0,.39.16,2.038,2.038,0,0,0,.466.049,2.563,2.563,0,0,0,.884-.139,2.107,2.107,0,0,0,.606-.355,1.408,1.408,0,0,0,.341-.466,1.14,1.14,0,0,0,.111-.473Z" transform="translate(-84.187 -330.85)" fill="#fff"/>
      <path id="Path_42120" data-name="Path 42120" d="M135.16,333.273h.982v1.009h.028a2.212,2.212,0,0,1,.856-.877,2.512,2.512,0,0,1,1.211-.285,2.684,2.684,0,0,1,1.044.174,1.686,1.686,0,0,1,1.037,1.211,3.966,3.966,0,0,1,.1.94v4.184h-1.044v-4.31a1.252,1.252,0,0,0-.341-.933,1.274,1.274,0,0,0-.947-.341,2.123,2.123,0,0,0-.828.146,1.5,1.5,0,0,0-.585.418,1.808,1.808,0,0,0-.348.634,2.634,2.634,0,0,0-.118.794v3.592h-1.044v-6.356Z" transform="translate(-87.219 -330.85)" fill="#fff"/>
      <path id="Path_42121" data-name="Path 42121" d="M149.158,335.319a1.568,1.568,0,0,0-.522-.933,1.587,1.587,0,0,0-1.051-.334,1.944,1.944,0,0,0-.947.209,1.69,1.69,0,0,0-.613.557,2.384,2.384,0,0,0-.327.794,4.506,4.506,0,0,0-.1.933,3.573,3.573,0,0,0,.1.863,2.331,2.331,0,0,0,.327.745,1.857,1.857,0,0,0,2.632.306,1.862,1.862,0,0,0,.543-1.135h1.072a2.967,2.967,0,0,1-.884,1.824,2.714,2.714,0,0,1-1.922.654,3.243,3.243,0,0,1-1.288-.244,2.542,2.542,0,0,1-.933-.668,2.787,2.787,0,0,1-.564-1.03,4.34,4.34,0,0,1-.188-1.309,4.63,4.63,0,0,1,.188-1.337,3.148,3.148,0,0,1,.557-1.086,2.657,2.657,0,0,1,.933-.724,3.113,3.113,0,0,1,1.323-.265,3.7,3.7,0,0,1,1.016.132,2.543,2.543,0,0,1,.842.4,2.175,2.175,0,0,1,.6.682,2.581,2.581,0,0,1,.292.982h-1.093Z" transform="translate(-90.057 -330.856)" fill="#fff"/>
      <path id="Path_42122" data-name="Path 42122" d="M155.614,331.141H154.57V329.86h1.044Zm-1.044,1.142h1.044v6.363H154.57Z" transform="translate(-93.116 -329.86)" fill="#fff"/>
      <path id="Path_42123" data-name="Path 42123" d="M163.89,339.609a1.465,1.465,0,0,1-.752.174.873.873,0,0,1-.647-.237,1,1,0,0,1-.237-.752,2.613,2.613,0,0,1-1,.752,3.3,3.3,0,0,1-1.239.237,3.432,3.432,0,0,1-.815-.1,1.852,1.852,0,0,1-.668-.313,1.552,1.552,0,0,1-.453-.557,2.122,2.122,0,0,1,.021-1.7,1.579,1.579,0,0,1,.487-.557,2.424,2.424,0,0,1,.689-.327,7.312,7.312,0,0,1,.794-.188c.285-.056.557-.1.822-.132a4.13,4.13,0,0,0,.682-.125,1.131,1.131,0,0,0,.466-.237.581.581,0,0,0,.174-.446,1.015,1.015,0,0,0-.132-.557.868.868,0,0,0-.334-.32,1.194,1.194,0,0,0-.453-.146,3.036,3.036,0,0,0-.5-.035,2.207,2.207,0,0,0-1.107.251,1.085,1.085,0,0,0-.48.954h-1.044a2.257,2.257,0,0,1,.244-1,1.865,1.865,0,0,1,.592-.661,2.4,2.4,0,0,1,.849-.362,4.315,4.315,0,0,1,1.009-.111,5.9,5.9,0,0,1,.856.063,2.253,2.253,0,0,1,.766.251,1.469,1.469,0,0,1,.557.536,1.715,1.715,0,0,1,.209.9v3.272a2.578,2.578,0,0,0,.042.543c.028.118.125.174.292.174a.963.963,0,0,0,.32-.063v.815Zm-1.7-3.258a1.21,1.21,0,0,1-.369.174,4.582,4.582,0,0,1-.466.1c-.167.028-.341.056-.522.077s-.362.049-.536.084-.334.077-.494.125a1.373,1.373,0,0,0-.4.2.982.982,0,0,0-.278.327,1.04,1.04,0,0,0-.1.494.852.852,0,0,0,.1.439.822.822,0,0,0,.271.285,1.094,1.094,0,0,0,.39.16,2.038,2.038,0,0,0,.466.049,2.563,2.563,0,0,0,.884-.139,2.107,2.107,0,0,0,.606-.355,1.408,1.408,0,0,0,.341-.466,1.14,1.14,0,0,0,.111-.473Z" transform="translate(-94.13 -330.85)" fill="#fff"/>
      <path id="Path_42124" data-name="Path 42124" d="M167.99,329.86h1.044v8.786H167.99Z" transform="translate(-97.193 -329.86)" fill="#fff"/>
      <path id="Path_42125" data-name="Path 42125" d="M178.912,329.86h1.295l3.432,8.786h-1.295L181.384,336h-3.718l-.982,2.646h-1.2Zm-.87,5.152h2.98l-1.462-4.1h-.028Z" transform="translate(-99.468 -329.86)" fill="#fff"/>
      <path id="Path_42126" data-name="Path 42126" d="M192.358,335.319a1.568,1.568,0,0,0-.522-.933,1.587,1.587,0,0,0-1.051-.334,1.944,1.944,0,0,0-.947.209,1.749,1.749,0,0,0-.613.557,2.386,2.386,0,0,0-.327.794,4.511,4.511,0,0,0-.1.933,3.575,3.575,0,0,0,.1.863,2.332,2.332,0,0,0,.327.745,1.857,1.857,0,0,0,2.632.306,1.862,1.862,0,0,0,.543-1.135h1.072a2.967,2.967,0,0,1-.884,1.824,2.746,2.746,0,0,1-1.922.654,3.243,3.243,0,0,1-1.288-.244,2.542,2.542,0,0,1-.933-.668,2.787,2.787,0,0,1-.564-1.03,4.341,4.341,0,0,1-.188-1.309,4.63,4.63,0,0,1,.188-1.337,3.149,3.149,0,0,1,.557-1.086,2.657,2.657,0,0,1,.933-.724,3.113,3.113,0,0,1,1.323-.265,3.7,3.7,0,0,1,1.016.132,2.474,2.474,0,0,1,.842.4,2.175,2.175,0,0,1,.6.682,2.58,2.58,0,0,1,.292.982h-1.093Z" transform="translate(-103.18 -330.856)" fill="#fff"/>
      <path id="Path_42127" data-name="Path 42127" d="M203.157,339.609a1.465,1.465,0,0,1-.752.174.873.873,0,0,1-.647-.237,1,1,0,0,1-.237-.752,2.613,2.613,0,0,1-1,.752,3.3,3.3,0,0,1-1.239.237,3.536,3.536,0,0,1-.822-.1,1.852,1.852,0,0,1-.668-.313,1.552,1.552,0,0,1-.453-.557,2.122,2.122,0,0,1,.021-1.7,1.579,1.579,0,0,1,.487-.557,2.424,2.424,0,0,1,.689-.327,7.308,7.308,0,0,1,.794-.188c.285-.056.557-.1.821-.132a4.131,4.131,0,0,0,.682-.125,1.131,1.131,0,0,0,.466-.237.581.581,0,0,0,.174-.446,1.015,1.015,0,0,0-.132-.557.868.868,0,0,0-.334-.32,1.194,1.194,0,0,0-.453-.146,3.036,3.036,0,0,0-.5-.035,2.207,2.207,0,0,0-1.107.251,1.085,1.085,0,0,0-.48.954h-1.044a2.257,2.257,0,0,1,.244-1,1.864,1.864,0,0,1,.592-.661,2.4,2.4,0,0,1,.849-.362,4.316,4.316,0,0,1,1.01-.111,5.9,5.9,0,0,1,.856.063,2.253,2.253,0,0,1,.766.251,1.469,1.469,0,0,1,.557.536,1.715,1.715,0,0,1,.209.9v3.272a2.576,2.576,0,0,0,.042.543c.028.118.125.174.292.174a.962.962,0,0,0,.32-.063Zm-1.7-3.258a1.21,1.21,0,0,1-.369.174,4.584,4.584,0,0,1-.466.1c-.167.028-.341.056-.522.077s-.362.049-.536.084-.334.077-.494.125a1.373,1.373,0,0,0-.4.2.982.982,0,0,0-.278.327,1.04,1.04,0,0,0-.1.494.852.852,0,0,0,.1.439.822.822,0,0,0,.272.285,1.094,1.094,0,0,0,.39.16,2.038,2.038,0,0,0,.466.049,2.563,2.563,0,0,0,.884-.139,2.107,2.107,0,0,0,.606-.355,1.409,1.409,0,0,0,.341-.466,1.14,1.14,0,0,0,.111-.473Z" transform="translate(-106.057 -330.85)" fill="#fff"/>
      <path id="Path_42128" data-name="Path 42128" d="M212.693,338.646h-1.044v-.863h-.028a1.564,1.564,0,0,1-.815.766,3.021,3.021,0,0,1-1.218.244,2.877,2.877,0,0,1-1.288-.272,2.618,2.618,0,0,1-.912-.731,3.223,3.223,0,0,1-.55-1.065,4.287,4.287,0,0,1-.188-1.281,4.437,4.437,0,0,1,.181-1.274,3.081,3.081,0,0,1,.543-1.051,2.583,2.583,0,0,1,.912-.717,2.912,2.912,0,0,1,1.274-.265,2.857,2.857,0,0,1,1.093.216,2.422,2.422,0,0,1,.536.306,1.742,1.742,0,0,1,.425.473h.028V329.86h1.044v8.786Zm-4.922-3.126a3.363,3.363,0,0,0,.118.87,2.307,2.307,0,0,0,.355.759,1.735,1.735,0,0,0,.613.529,1.852,1.852,0,0,0,.877.195,1.785,1.785,0,0,0,.9-.209,1.834,1.834,0,0,0,.606-.55,2.245,2.245,0,0,0,.341-.766,3.688,3.688,0,0,0,.1-.877,3.544,3.544,0,0,0-.111-.905,2.207,2.207,0,0,0-.348-.766,1.85,1.85,0,0,0-.62-.536,2,2,0,0,0-.926-.2,1.794,1.794,0,0,0-.905.209,1.662,1.662,0,0,0-.585.557,2.4,2.4,0,0,0-.32.787A4.244,4.244,0,0,0,207.771,335.52Z" transform="translate(-108.937 -329.86)" fill="#fff"/>
      <path id="Path_42129" data-name="Path 42129" d="M222.922,337.624a2.581,2.581,0,0,1-.926,1.615,2.837,2.837,0,0,1-1.8.557,3.226,3.226,0,0,1-1.323-.251,2.634,2.634,0,0,1-.94-.7,2.923,2.923,0,0,1-.571-1.058,5.075,5.075,0,0,1-.216-1.344,3.878,3.878,0,0,1,.223-1.323,3.16,3.16,0,0,1,.62-1.051,2.814,2.814,0,0,1,2.144-.933,2.631,2.631,0,0,1,1.406.348,2.747,2.747,0,0,1,.9.891,3.507,3.507,0,0,1,.466,1.184,5.34,5.34,0,0,1,.1,1.218H218.25a2.7,2.7,0,0,0,.1.794,1.839,1.839,0,0,0,.355.661,1.746,1.746,0,0,0,.627.459,2.088,2.088,0,0,0,.9.174,1.867,1.867,0,0,0,1.086-.306,1.47,1.47,0,0,0,.564-.933h1.044Zm-1.009-1.775a2.038,2.038,0,0,0-.167-.7,1.777,1.777,0,0,0-.954-.954,1.757,1.757,0,0,0-.717-.139,1.875,1.875,0,0,0-.731.139,1.674,1.674,0,0,0-.557.39,1.962,1.962,0,0,0-.369.571,2.078,2.078,0,0,0-.16.7Z" transform="translate(-112.127 -330.856)" fill="#fff"/>
      <path id="Path_42130" data-name="Path 42130" d="M227.14,333.27h.982v.933h.028a2.31,2.31,0,0,1,2.054-1.086,2.358,2.358,0,0,1,1.072.244,1.4,1.4,0,0,1,.675.835,2.233,2.233,0,0,1,.849-.8,2.394,2.394,0,0,1,1.142-.285,3.351,3.351,0,0,1,.87.1,1.787,1.787,0,0,1,.661.327,1.551,1.551,0,0,1,.432.571,2.047,2.047,0,0,1,.153.842v4.665h-1.044v-4.17a2.861,2.861,0,0,0-.049-.557,1.122,1.122,0,0,0-.188-.446.9.9,0,0,0-.376-.3,1.565,1.565,0,0,0-.62-.111,1.635,1.635,0,0,0-1.211.446,1.591,1.591,0,0,0-.446,1.184v3.961h-1.044v-4.17a2.814,2.814,0,0,0-.056-.564,1.121,1.121,0,0,0-.188-.446.91.91,0,0,0-.369-.292,1.406,1.406,0,0,0-.578-.1,1.53,1.53,0,0,0-.787.188,1.734,1.734,0,0,0-.522.446,1.7,1.7,0,0,0-.292.536,1.507,1.507,0,0,0-.09.459v3.961h-1.044v-6.37Z" transform="translate(-115.162 -330.847)" fill="#fff"/>
      <path id="Path_42131" data-name="Path 42131" d="M244.419,340.55a7.224,7.224,0,0,1-.362.787,2.127,2.127,0,0,1-.39.522,1.315,1.315,0,0,1-.48.292,1.859,1.859,0,0,1-.613.091,2.194,2.194,0,0,1-.369-.028,1.468,1.468,0,0,1-.355-.083v-.961c.1.035.2.07.3.1a.981.981,0,0,0,.313.049.838.838,0,0,0,.515-.146,1.22,1.22,0,0,0,.341-.432l.432-1.079-2.52-6.329h1.184l1.859,5.208h.028l1.782-5.208h1.107Z" transform="translate(-119.442 -330.914)" fill="#fff"/>
    </g>
  </g>
</svg>
