<svg xmlns="http://www.w3.org/2000/svg" xmlns:xlink="http://www.w3.org/1999/xlink" version="1.1" id="Layer_1" x="0px" y="0px" style="enable-background:new 0 0 518.74 530.08;" xml:space="preserve" viewBox="172.52 175.97 184.4 204.69">
<style type="text/css">
	.st0{fill:#064D97;}
	.st1{fill:#397EC1;}
	.st2{fill:#FFFFFF;}
	.st3{fill:#231F20;}
	.st4{fill:#6E6E6E;}
	.st5{fill:#3E3E3E;}
	.st6{fill:#828282;}
	.st7{fill:#454545;}
</style>
<g>
	<path class="st4" d="M210.46,310.51c-0.52,0-1.04-0.09-1.54-0.28c-2.33-0.88-3.53-3.55-2.68-5.96l18.8-53.49   c0.64-1.83,2.34-3.06,4.22-3.06c0.52,0,1.04,0.09,1.54,0.28c1.13,0.42,2.03,1.28,2.53,2.41c0.51,1.13,0.56,2.39,0.15,3.56   l-18.8,53.49C214.04,309.28,212.34,310.51,210.46,310.51z"/>
	<path class="st4" d="M243.1,292.54c-0.52,0-1.04-0.09-1.54-0.25c-1.13-0.38-2.03-1.15-2.53-2.16c-0.51-1.01-0.56-2.15-0.15-3.19   l42.36-108.22c0.64-1.64,2.34-2.75,4.22-2.75c0.52,0,1.04,0.09,1.54,0.25c1.13,0.38,2.03,1.15,2.53,2.16   c0.51,1.01,0.56,2.15,0.15,3.19l-42.36,108.22C246.68,291.44,244.98,292.54,243.1,292.54z"/>
	<path class="st4" d="M177.34,274.62c-0.52,0-1.04-0.09-1.54-0.27c-2.33-0.85-3.53-3.44-2.68-5.77l9.75-26.86   c0.64-1.77,2.34-2.96,4.22-2.96c0.52,0,1.04,0.09,1.54,0.27c1.13,0.41,2.03,1.24,2.53,2.33c0.51,1.09,0.56,2.31,0.15,3.44   l-9.75,26.86C180.92,273.43,179.22,274.62,177.34,274.62z"/>
	<path class="st4" d="M332.91,310.52c-0.52,0-1.04-0.09-1.54-0.27c-1.13-0.41-2.03-1.24-2.53-2.33c-0.51-1.09-0.56-2.32-0.15-3.45   l9.75-26.92c0.64-1.78,2.34-2.97,4.22-2.97c0.52,0,1.04,0.09,1.54,0.27c1.13,0.41,2.03,1.24,2.53,2.33   c0.51,1.09,0.56,2.32,0.15,3.45l-9.75,26.92C336.48,309.33,334.79,310.52,332.91,310.52z"/>
	<circle class="st4" cx="210.28" cy="243.21" r="4.51"/>
	<circle class="st4" cx="210.28" cy="261.17" r="4.51"/>
	<circle class="st4" cx="229.55" cy="306" r="4.51"/>
	<circle class="st4" cx="229.55" cy="288.07" r="4.51"/>
	<path class="st5" d="M243.03,292.54c-1.88,0-3.58-1.14-4.22-2.84l-13.69-36.19c-0.41-1.08-0.36-2.26,0.15-3.3   c0.51-1.05,1.41-1.84,2.53-2.23c0.5-0.17,1.01-0.26,1.54-0.26c1.88,0,3.58,1.14,4.22,2.84l13.69,36.19   c0.41,1.08,0.36,2.26-0.15,3.3c-0.51,1.05-1.41,1.84-2.53,2.23C244.07,292.46,243.55,292.54,243.03,292.54L243.03,292.54z"/>
	<path class="st5" d="M210.42,310.45c-1.88,0-3.58-1.17-4.22-2.91l-23.27-62.83c-0.85-2.29,0.36-4.82,2.68-5.66   c0.5-0.18,1.01-0.27,1.54-0.27c1.88,0,3.58,1.17,4.22,2.91l23.27,62.83c0.85,2.29-0.36,4.82-2.68,5.66   C211.46,310.36,210.94,310.45,210.42,310.45L210.42,310.45z"/>
	<path class="st5" d="M332.86,310.52c-1.88,0-3.58-1.15-4.22-2.86l-47.42-125.84c-0.85-2.25,0.36-4.74,2.68-5.56   c0.5-0.17,1.01-0.26,1.54-0.26c1.88,0,3.58,1.15,4.22,2.86l47.42,125.84c0.41,1.09,0.36,2.27-0.15,3.32   c-0.51,1.05-1.41,1.85-2.53,2.24C333.9,310.43,333.38,310.52,332.86,310.52L332.86,310.52z"/>
	<path class="st5" d="M352.43,310.52c-1.88,0-3.58-1.19-4.22-2.97l-9.75-26.92c-0.85-2.34,0.36-4.93,2.68-5.78   c0.5-0.18,1.01-0.27,1.54-0.27c1.88,0,3.58,1.19,4.22,2.97l9.75,26.92c0.85,2.34-0.36,4.93-2.68,5.78   C353.47,310.43,352.95,310.52,352.43,310.52L352.43,310.52z"/>
	<g>
		<path class="st5" d="M176.87,350.6c-0.38,0-0.82-0.06-1.31-0.17c-0.5-0.11-0.97-0.31-1.42-0.6c-0.45-0.29-0.83-0.7-1.15-1.22    c-0.32-0.53-0.47-1.21-0.47-2.06s0.15-1.56,0.45-2.13c0.3-0.57,0.69-1.04,1.16-1.4c0.47-0.36,1-0.62,1.57-0.78    c0.58-0.16,1.15-0.23,1.71-0.23h3.76v6.75c0,0.66,0.1,1.12,0.31,1.4c0.2,0.27,0.66,0.41,1.37,0.41h0.57    c0.63,0,0.95,0.32,0.95,0.96c0,0.4-0.07,0.67-0.22,0.81c-0.15,0.14-0.39,0.22-0.72,0.22h-0.8c-0.41,0-0.8-0.04-1.17-0.11    c-0.37-0.07-0.7-0.2-0.99-0.38c-0.29-0.18-0.54-0.43-0.74-0.73c-0.2-0.3-0.34-0.69-0.4-1.17c-0.35,0.13-0.74,0.23-1.17,0.31    C177.7,350.56,177.28,350.6,176.87,350.6z M174.41,346.38c0,0.66,0.21,1.19,0.63,1.6c0.42,0.41,1.08,0.61,2,0.61    c0.35,0,0.72-0.04,1.12-0.12c0.4-0.08,0.76-0.18,1.08-0.31v-4.18h-2.08c-0.76,0-1.4,0.19-1.94,0.58    C174.68,344.94,174.41,345.55,174.41,346.38z M174.93,337.69c0-0.35,0.12-0.64,0.37-0.89c0.24-0.25,0.54-0.37,0.89-0.37    c0.35,0,0.64,0.12,0.89,0.37c0.24,0.24,0.37,0.54,0.37,0.89c0,0.35-0.12,0.64-0.37,0.89c-0.24,0.25-0.54,0.37-0.89,0.37    c-0.35,0-0.64-0.12-0.89-0.37C175.05,338.33,174.93,338.04,174.93,337.69z M178,337.69c0-0.35,0.12-0.64,0.37-0.89    c0.24-0.25,0.54-0.37,0.89-0.37c0.35,0,0.64,0.12,0.89,0.37c0.24,0.24,0.37,0.54,0.37,0.89c0,0.35-0.12,0.64-0.37,0.89    c-0.24,0.25-0.54,0.37-0.89,0.37c-0.35,0-0.64-0.12-0.89-0.37C178.12,338.33,178,338.04,178,337.69z"/>
		<path class="st5" d="M183.41,352.56c-0.63,0-0.95-0.31-0.95-0.95c0-0.39,0.07-0.66,0.22-0.8c0.15-0.14,0.39-0.21,0.72-0.21h3.5    c0.63,0,0.95,0.31,0.95,0.95c0,0.39-0.07,0.66-0.22,0.8c-0.15,0.14-0.39,0.21-0.72,0.21H183.41z"/>
		<path class="st5" d="M186.91,352.56c-0.63,0-0.95-0.31-0.95-0.95c0-0.39,0.07-0.66,0.22-0.8c0.15-0.14,0.39-0.21,0.72-0.21h3.5    c0.63,0,0.95,0.31,0.95,0.95c0,0.39-0.07,0.66-0.22,0.8c-0.15,0.14-0.39,0.21-0.72,0.21H186.91z"/>
		<path class="st5" d="M190.41,352.56c-0.63,0-0.95-0.31-0.95-0.95c0-0.39,0.07-0.66,0.22-0.8c0.15-0.14,0.39-0.21,0.72-0.21h3.5    c0.63,0,0.95,0.31,0.95,0.95c0,0.39-0.07,0.66-0.22,0.8c-0.15,0.14-0.39,0.21-0.72,0.21H190.41z"/>
		<path class="st5" d="M193.91,352.56c-0.63,0-0.95-0.31-0.95-0.95c0-0.39,0.07-0.66,0.22-0.8c0.15-0.14,0.39-0.21,0.72-0.21h3.5    c0.63,0,0.95,0.31,0.95,0.95c0,0.39-0.07,0.66-0.22,0.8c-0.15,0.14-0.39,0.21-0.72,0.21H193.91z"/>
		<path class="st5" d="M197.4,352.56c-0.63,0-0.95-0.31-0.95-0.95c0-0.39,0.07-0.66,0.22-0.8c0.15-0.14,0.39-0.21,0.72-0.21h1.58    c0.38,0,0.7-0.02,0.97-0.05c0.27-0.03,0.49-0.11,0.67-0.23c0.18-0.12,0.31-0.29,0.4-0.52c0.09-0.23,0.13-0.54,0.13-0.93v-5.41    h1.94V348c0,0.39,0.03,0.75,0.08,1.07c0.06,0.32,0.16,0.6,0.32,0.82c0.16,0.22,0.37,0.39,0.64,0.52c0.27,0.13,0.61,0.19,1.02,0.19    c0.63,0,0.95,0.31,0.95,0.95c0,0.39-0.08,0.66-0.23,0.8c-0.15,0.14-0.39,0.21-0.72,0.21c-0.61,0-1.11-0.14-1.49-0.44    c-0.38-0.29-0.63-0.66-0.76-1.1c-0.28,0.65-0.73,1.06-1.34,1.25c-0.61,0.19-1.35,0.28-2.23,0.28H197.4z M199.27,356.13    c0-0.35,0.12-0.64,0.37-0.89c0.24-0.25,0.54-0.37,0.89-0.37c0.35,0,0.64,0.12,0.89,0.37c0.24,0.24,0.37,0.54,0.37,0.89    c0,0.35-0.12,0.64-0.37,0.89c-0.24,0.25-0.54,0.37-0.89,0.37c-0.35,0-0.64-0.12-0.89-0.37    C199.39,356.77,199.27,356.47,199.27,356.13z M202.34,356.13c0-0.35,0.12-0.64,0.37-0.89c0.24-0.25,0.54-0.37,0.89-0.37    c0.35,0,0.64,0.12,0.89,0.37c0.24,0.24,0.37,0.54,0.37,0.89c0,0.35-0.12,0.64-0.37,0.89c-0.25,0.25-0.54,0.37-0.89,0.37    c-0.35,0-0.64-0.12-0.89-0.37C202.47,356.77,202.34,356.47,202.34,356.13z"/>
		<path class="st5" d="M205.16,352.56c-0.63,0-0.95-0.31-0.95-0.95c0-0.39,0.07-0.66,0.22-0.8c0.15-0.14,0.39-0.21,0.72-0.21h3.69    v-14.91h1.94v16.88H205.16z"/>
		<path class="st5" d="M219.03,351.54c0,0.39-0.07,0.66-0.22,0.8c-0.15,0.14-0.39,0.21-0.72,0.21h-0.61c-0.51,0-0.97-0.05-1.38-0.15    c-0.42-0.1-0.77-0.28-1.06-0.53c-0.29-0.25-0.52-0.59-0.69-1c-0.17-0.42-0.25-0.94-0.25-1.57v-13.61h1.94v13.09    c0,0.66,0.1,1.13,0.31,1.41c0.21,0.27,0.66,0.41,1.37,0.41h0.38C218.72,350.6,219.03,350.91,219.03,351.54z"/>
		<path class="st5" d="M232.6,352.56c-0.6,0-1.12-0.12-1.56-0.35c-0.44-0.24-0.8-0.64-1.06-1.21v-0.05c-0.3,0.6-0.74,1.07-1.31,1.41    c-0.58,0.34-1.3,0.51-2.16,0.51c-0.74,0-1.49-0.13-2.25-0.38s-1.54-0.68-2.34-1.28c-0.21,0.32-0.41,0.56-0.63,0.74    c-0.21,0.18-0.44,0.32-0.67,0.4c-0.24,0.09-0.48,0.14-0.73,0.16c-0.25,0.02-0.52,0.04-0.8,0.04h-1.02c-0.63,0-0.95-0.32-0.95-0.95    c0-0.39,0.07-0.66,0.22-0.8c0.15-0.14,0.39-0.21,0.72-0.21h0.97c0.19,0,0.39-0.02,0.59-0.07c0.2-0.05,0.41-0.15,0.61-0.31    c0.2-0.16,0.41-0.37,0.6-0.65c0.2-0.28,0.38-0.65,0.56-1.13c0.36-1.01,0.74-1.83,1.15-2.45s0.81-1.11,1.23-1.44    c0.42-0.34,0.84-0.57,1.28-0.68c0.43-0.11,0.86-0.17,1.29-0.17c0.6,0,1.15,0.11,1.65,0.34c0.5,0.23,0.94,0.55,1.31,0.97    c0.37,0.42,0.66,0.92,0.88,1.49c0.21,0.58,0.32,1.22,0.32,1.93c0,0.11,0,0.22-0.01,0.32c-0.01,0.1-0.01,0.2-0.01,0.3    c0.16,0.51,0.39,0.89,0.7,1.15c0.31,0.26,0.78,0.39,1.43,0.39c0.63,0,0.95,0.32,0.95,0.95c0,0.39-0.07,0.66-0.22,0.81    C233.17,352.49,232.93,352.56,232.6,352.56z M228.56,348.38c0-0.35-0.05-0.69-0.15-1.02c-0.1-0.33-0.25-0.62-0.45-0.87    c-0.2-0.25-0.44-0.45-0.72-0.6s-0.61-0.23-0.99-0.23c-0.66,0-1.27,0.29-1.82,0.87c-0.55,0.58-1.07,1.61-1.56,3.07    c0.58,0.38,1.16,0.68,1.74,0.91s1.16,0.34,1.76,0.34c0.66,0,1.19-0.19,1.6-0.57C228.36,349.91,228.56,349.27,228.56,348.38z"/>
		<path class="st5" d="M232.62,352.56c-0.63,0-0.95-0.31-0.95-0.95c0-0.39,0.07-0.66,0.22-0.8c0.15-0.14,0.39-0.21,0.72-0.21h3.69    v-14.91h1.94v16.88H232.62z"/>
		<path class="st5" d="M243.49,335.68v16.88h-1.94v-16.88H243.49z"/>
		<path class="st5" d="M256.14,350.6c-0.38,0-0.82-0.06-1.31-0.17c-0.5-0.11-0.97-0.31-1.42-0.6c-0.45-0.29-0.83-0.7-1.15-1.22    c-0.32-0.53-0.47-1.21-0.47-2.06s0.15-1.56,0.45-2.13c0.3-0.57,0.69-1.04,1.16-1.4c0.47-0.36,1-0.62,1.57-0.78    c0.58-0.16,1.15-0.23,1.71-0.23h3.76v6.75c0,0.66,0.1,1.12,0.31,1.4c0.2,0.27,0.66,0.41,1.37,0.41h0.57    c0.63,0,0.95,0.32,0.95,0.96c0,0.4-0.07,0.67-0.22,0.81c-0.15,0.14-0.39,0.22-0.72,0.22h-0.8c-0.41,0-0.8-0.04-1.17-0.11    c-0.37-0.07-0.7-0.2-0.99-0.38c-0.29-0.18-0.54-0.43-0.74-0.73c-0.2-0.3-0.34-0.69-0.4-1.17c-0.35,0.13-0.74,0.23-1.17,0.31    C256.97,350.56,256.55,350.6,256.14,350.6z M253.68,346.38c0,0.66,0.21,1.19,0.63,1.6c0.42,0.41,1.08,0.61,2,0.61    c0.35,0,0.72-0.04,1.12-0.12c0.4-0.08,0.76-0.18,1.08-0.31v-4.18h-2.08c-0.76,0-1.4,0.19-1.94,0.58    C253.95,344.94,253.68,345.55,253.68,346.38z M254.2,337.69c0-0.35,0.12-0.64,0.37-0.89c0.24-0.25,0.54-0.37,0.89-0.37    c0.35,0,0.64,0.12,0.89,0.37c0.24,0.24,0.37,0.54,0.37,0.89c0,0.35-0.12,0.64-0.37,0.89c-0.24,0.25-0.54,0.37-0.89,0.37    c-0.35,0-0.64-0.12-0.89-0.37C254.32,338.33,254.2,338.04,254.2,337.69z M257.27,337.69c0-0.35,0.12-0.64,0.37-0.89    c0.24-0.25,0.54-0.37,0.89-0.37c0.35,0,0.64,0.12,0.89,0.37c0.24,0.24,0.37,0.54,0.37,0.89c0,0.35-0.12,0.64-0.37,0.89    c-0.24,0.25-0.54,0.37-0.89,0.37c-0.35,0-0.64-0.12-0.89-0.37C257.39,338.33,257.27,338.04,257.27,337.69z"/>
		<path class="st5" d="M262.69,352.56c-0.63,0-0.95-0.31-0.95-0.95c0-0.39,0.07-0.66,0.22-0.8c0.15-0.14,0.39-0.21,0.72-0.21h3.5    c0.63,0,0.95,0.31,0.95,0.95c0,0.39-0.07,0.66-0.22,0.8c-0.15,0.14-0.39,0.21-0.72,0.21H262.69z"/>
		<path class="st5" d="M266.18,352.56c-0.63,0-0.95-0.31-0.95-0.95c0-0.39,0.07-0.66,0.22-0.8c0.15-0.14,0.39-0.21,0.72-0.21h3.5    c0.63,0,0.95,0.31,0.95,0.95c0,0.39-0.07,0.66-0.22,0.8c-0.15,0.14-0.39,0.21-0.72,0.21H266.18z"/>
		<path class="st5" d="M269.68,352.56c-0.63,0-0.95-0.31-0.95-0.95c0-0.39,0.07-0.66,0.22-0.8c0.15-0.14,0.39-0.21,0.72-0.21h3.5    c0.63,0,0.95,0.31,0.95,0.95c0,0.39-0.07,0.66-0.22,0.8c-0.15,0.14-0.39,0.21-0.72,0.21H269.68z"/>
		<path class="st5" d="M273.18,352.56c-0.63,0-0.95-0.31-0.95-0.95c0-0.39,0.07-0.66,0.22-0.8c0.15-0.14,0.39-0.21,0.72-0.21h1.58    c0.38,0,0.7-0.02,0.97-0.05c0.27-0.03,0.49-0.11,0.67-0.23c0.18-0.12,0.31-0.29,0.4-0.52c0.09-0.23,0.13-0.54,0.13-0.93v-5.41    h1.94V348c0,0.39,0.03,0.75,0.08,1.07c0.06,0.32,0.16,0.6,0.32,0.82c0.16,0.22,0.37,0.39,0.64,0.52c0.27,0.13,0.61,0.19,1.02,0.19    c0.63,0,0.95,0.31,0.95,0.95c0,0.39-0.08,0.66-0.23,0.8c-0.15,0.14-0.39,0.21-0.72,0.21c-0.61,0-1.11-0.14-1.49-0.44    c-0.38-0.29-0.63-0.66-0.76-1.1c-0.28,0.65-0.73,1.06-1.34,1.25c-0.61,0.19-1.35,0.28-2.23,0.28H273.18z M275.05,356.13    c0-0.35,0.12-0.64,0.37-0.89c0.24-0.25,0.54-0.37,0.89-0.37c0.35,0,0.64,0.12,0.89,0.37c0.24,0.24,0.37,0.54,0.37,0.89    c0,0.35-0.12,0.64-0.37,0.89c-0.24,0.25-0.54,0.37-0.89,0.37c-0.35,0-0.64-0.12-0.89-0.37    C275.17,356.77,275.05,356.47,275.05,356.13z M278.12,356.13c0-0.35,0.12-0.64,0.37-0.89c0.24-0.25,0.54-0.37,0.89-0.37    c0.35,0,0.64,0.12,0.89,0.37c0.24,0.24,0.37,0.54,0.37,0.89c0,0.35-0.12,0.64-0.37,0.89c-0.25,0.25-0.54,0.37-0.89,0.37    c-0.35,0-0.64-0.12-0.89-0.37C278.24,356.77,278.12,356.47,278.12,356.13z"/>
		<path class="st5" d="M295.44,352.56c-0.6,0-1.12-0.12-1.56-0.35c-0.44-0.24-0.8-0.64-1.06-1.21v-0.05    c-0.3,0.6-0.74,1.07-1.31,1.41c-0.58,0.34-1.3,0.51-2.16,0.51c-0.74,0-1.49-0.13-2.25-0.38s-1.54-0.68-2.34-1.28    c-0.21,0.32-0.41,0.56-0.63,0.74c-0.21,0.18-0.44,0.32-0.67,0.4c-0.24,0.09-0.48,0.14-0.73,0.16s-0.52,0.04-0.8,0.04h-1.02    c-0.63,0-0.95-0.32-0.95-0.95c0-0.39,0.07-0.66,0.22-0.8c0.15-0.14,0.39-0.21,0.72-0.21h0.97c0.19,0,0.39-0.02,0.59-0.07    c0.2-0.05,0.41-0.15,0.61-0.31c0.2-0.16,0.41-0.37,0.6-0.65c0.2-0.28,0.38-0.65,0.56-1.13c0.36-1.01,0.74-1.83,1.15-2.45    c0.4-0.62,0.81-1.11,1.23-1.44c0.42-0.34,0.84-0.57,1.28-0.68c0.43-0.11,0.86-0.17,1.29-0.17c0.6,0,1.15,0.11,1.65,0.34    c0.5,0.23,0.94,0.55,1.31,0.97c0.37,0.42,0.66,0.92,0.88,1.49c0.21,0.58,0.32,1.22,0.32,1.93c0,0.11,0,0.22-0.01,0.32    c-0.01,0.1-0.01,0.2-0.01,0.3c0.16,0.51,0.39,0.89,0.7,1.15c0.31,0.26,0.78,0.39,1.43,0.39c0.63,0,0.95,0.32,0.95,0.95    c0,0.39-0.07,0.66-0.22,0.81C296.01,352.49,295.77,352.56,295.44,352.56z M291.4,348.38c0-0.35-0.05-0.69-0.15-1.02    c-0.1-0.33-0.25-0.62-0.45-0.87c-0.2-0.25-0.44-0.45-0.72-0.6s-0.61-0.23-0.99-0.23c-0.66,0-1.27,0.29-1.82,0.87    c-0.55,0.58-1.07,1.61-1.56,3.07c0.58,0.38,1.16,0.68,1.74,0.91s1.16,0.34,1.76,0.34c0.66,0,1.19-0.19,1.6-0.57    C291.2,349.91,291.4,349.27,291.4,348.38z"/>
		<path class="st5" d="M295.47,352.56c-0.63,0-0.95-0.31-0.95-0.95c0-0.39,0.07-0.66,0.22-0.8c0.15-0.14,0.39-0.21,0.72-0.21h3.5    c0.63,0,0.95,0.31,0.95,0.95c0,0.39-0.07,0.66-0.22,0.8c-0.15,0.14-0.39,0.21-0.72,0.21H295.47z"/>
		<path class="st5" d="M298.97,352.56c-0.63,0-0.95-0.31-0.95-0.95c0-0.39,0.07-0.66,0.22-0.8c0.15-0.14,0.39-0.21,0.72-0.21h3.5    c0.63,0,0.95,0.31,0.95,0.95c0,0.39-0.07,0.66-0.22,0.8c-0.15,0.14-0.39,0.21-0.72,0.21H298.97z"/>
		<path class="st5" d="M302.46,352.56c-0.63,0-0.95-0.31-0.95-0.95c0-0.39,0.07-0.66,0.22-0.8c0.15-0.14,0.39-0.21,0.72-0.21h3.69    v-7.14h1.94v9.1H302.46z M303.41,356.13c0-0.35,0.12-0.64,0.37-0.89c0.24-0.25,0.54-0.37,0.89-0.37c0.35,0,0.64,0.12,0.89,0.37    c0.24,0.24,0.37,0.54,0.37,0.89c0,0.35-0.12,0.64-0.37,0.89c-0.24,0.25-0.54,0.37-0.89,0.37c-0.35,0-0.64-0.12-0.89-0.37    C303.53,356.77,303.41,356.47,303.41,356.13z M306.48,356.13c0-0.35,0.12-0.64,0.37-0.89c0.24-0.25,0.54-0.37,0.89-0.37    c0.35,0,0.64,0.12,0.89,0.37c0.24,0.24,0.37,0.54,0.37,0.89c0,0.35-0.12,0.64-0.37,0.89c-0.24,0.25-0.54,0.37-0.89,0.37    c-0.35,0-0.64-0.12-0.89-0.37C306.6,356.77,306.48,356.47,306.48,356.13z"/>
		<path class="st5" d="M319.15,349.96c0,0.76-0.26,1.38-0.78,1.87c-0.52,0.49-1.28,0.73-2.27,0.73h-5.65v-1.96h5.48    c0.54,0,0.87-0.08,1.02-0.25c0.14-0.17,0.21-0.35,0.21-0.56c0-0.16-0.03-0.32-0.09-0.5c-0.06-0.17-0.22-0.45-0.46-0.83    c-0.24-0.38-0.6-0.91-1.06-1.61c-0.46-0.69-1.1-1.63-1.9-2.81l1.82-1.13c0.63,1.09,1.18,2,1.64,2.74    c0.46,0.74,0.85,1.37,1.15,1.89c0.3,0.52,0.52,0.97,0.67,1.34C319.08,349.25,319.15,349.61,319.15,349.96z"/>
		<path class="st5" d="M326.9,351.54c0,0.39-0.07,0.66-0.22,0.8c-0.15,0.14-0.39,0.21-0.72,0.21h-0.61c-0.51,0-0.97-0.05-1.38-0.15    c-0.42-0.1-0.77-0.28-1.06-0.53c-0.29-0.25-0.52-0.59-0.69-1c-0.17-0.42-0.25-0.94-0.25-1.57v-13.61h1.94v13.09    c0,0.66,0.1,1.13,0.31,1.41c0.21,0.27,0.66,0.41,1.37,0.41h0.38C326.59,350.6,326.9,350.91,326.9,351.54z"/>
		<path class="st5" d="M325.96,352.56c-0.63,0-0.95-0.31-0.95-0.95c0-0.39,0.07-0.66,0.22-0.8c0.15-0.14,0.39-0.21,0.72-0.21h5.65    c0.58,0,1.07-0.1,1.45-0.31c0.39-0.2,0.58-0.6,0.58-1.18c0-0.41-0.19-0.88-0.58-1.41c-0.39-0.53-0.9-1.06-1.54-1.61    c-0.64-0.54-1.37-1.08-2.19-1.61c-0.82-0.53-1.67-1-2.55-1.43c0.02-0.19,0.06-0.38,0.14-0.58c0.08-0.2,0.17-0.38,0.26-0.54    c0.09-0.16,0.19-0.31,0.3-0.44c0.1-0.12,0.19-0.21,0.25-0.26l8.65-3.81v1.92l-6.95,3.07c1.1,0.65,2.04,1.28,2.81,1.89    c0.77,0.62,1.4,1.21,1.89,1.77c0.49,0.57,0.84,1.11,1.05,1.64c0.21,0.53,0.32,1.03,0.32,1.5c0,0.33-0.05,0.69-0.15,1.09    c-0.1,0.39-0.3,0.76-0.58,1.09c-0.28,0.33-0.69,0.61-1.21,0.83c-0.52,0.22-1.19,0.33-2.01,0.33H325.96z"/>
		<path class="st5" d="M351.67,335.68v16.88h-13.42v-1.96h5.32v-9.01h1.94v9.01h4.23v-14.91H351.67z M346.33,339.49h-4.33v-1.06    h1.06c-0.22-0.36-0.33-0.76-0.33-1.21c0-0.35,0.06-0.65,0.17-0.91s0.26-0.48,0.45-0.65c0.19-0.17,0.41-0.31,0.65-0.4    c0.24-0.1,0.49-0.14,0.74-0.14c0.27,0,0.5,0.02,0.7,0.05c0.2,0.03,0.34,0.09,0.44,0.17v1.09c-0.32-0.14-0.65-0.21-1.02-0.21    c-0.38,0-0.65,0.11-0.83,0.33c-0.17,0.22-0.26,0.46-0.26,0.73c0,0.31,0.1,0.59,0.31,0.82c0.2,0.23,0.51,0.34,0.92,0.34h1.32    V339.49z"/>
		<path class="st5" d="M356.92,335.68v16.88h-1.94v-16.88H356.92z"/>
	</g>
	<g>
		<path class="st5" d="M177.65,365.8h-4.21v-1.41h10.09v1.41h-4.21v11.21h-1.68V365.8z"/>
		<path class="st5" d="M184.68,364.39h1.5v4.82h0.04c0.12-0.27,0.29-0.51,0.5-0.71c0.22-0.2,0.46-0.36,0.72-0.49    c0.26-0.12,0.53-0.21,0.82-0.27c0.29-0.06,0.57-0.09,0.84-0.09c0.6,0,1.1,0.08,1.5,0.25c0.4,0.16,0.72,0.39,0.97,0.69    c0.25,0.29,0.42,0.64,0.52,1.05c0.1,0.41,0.15,0.86,0.15,1.35v6.01h-1.5v-6.19c0-0.57-0.16-1.01-0.49-1.34s-0.78-0.49-1.36-0.49    c-0.46,0-0.86,0.07-1.19,0.21c-0.34,0.14-0.62,0.34-0.84,0.6c-0.22,0.26-0.39,0.56-0.5,0.91c-0.11,0.35-0.17,0.73-0.17,1.14v5.16    h-1.5V364.39z"/>
		<path class="st5" d="M202.3,374.11c-0.2,1.01-0.64,1.79-1.33,2.32c-0.68,0.53-1.54,0.8-2.58,0.8c-0.73,0-1.36-0.12-1.9-0.36    c-0.54-0.24-0.99-0.58-1.35-1c-0.36-0.42-0.64-0.93-0.82-1.52c-0.18-0.59-0.29-1.23-0.31-1.93c0-0.68,0.11-1.32,0.32-1.9    c0.21-0.58,0.51-1.09,0.89-1.51c0.38-0.43,0.84-0.75,1.36-0.99c0.52-0.24,1.1-0.35,1.72-0.35c0.81,0,1.49,0.17,2.02,0.5    c0.54,0.34,0.97,0.76,1.29,1.28c0.32,0.52,0.55,1.08,0.67,1.7c0.12,0.61,0.17,1.2,0.15,1.75h-6.84c-0.01,0.4,0.04,0.78,0.14,1.14    c0.11,0.36,0.28,0.68,0.51,0.95c0.24,0.28,0.54,0.5,0.9,0.66c0.36,0.17,0.79,0.25,1.29,0.25c0.62,0,1.14-0.15,1.56-0.44    c0.41-0.29,0.68-0.74,0.81-1.34H202.3z M200.85,371.57c-0.02-0.35-0.1-0.69-0.24-1.01c-0.14-0.32-0.32-0.59-0.55-0.82    s-0.5-0.41-0.82-0.55c-0.32-0.14-0.66-0.2-1.03-0.2c-0.39,0-0.74,0.07-1.05,0.2c-0.31,0.14-0.58,0.32-0.8,0.56    s-0.4,0.51-0.53,0.82c-0.13,0.31-0.21,0.64-0.23,1H200.85z"/>
		<path class="st5" d="M209.16,364.39h8.29v1.41h-6.61v4.01h5.8v1.41h-5.8v5.78h-1.68V364.39z"/>
		<path class="st5" d="M220.65,366.23h-1.5v-1.84h1.5V366.23z M219.15,367.87h1.5v9.14h-1.5V367.87z"/>
		<path class="st5" d="M222.98,367.87h1.41v1.45h0.04c0.32-0.57,0.73-0.98,1.23-1.26c0.5-0.27,1.08-0.41,1.74-0.41    c0.6,0,1.1,0.08,1.5,0.25c0.4,0.16,0.72,0.39,0.97,0.69c0.25,0.29,0.42,0.64,0.52,1.05c0.1,0.41,0.15,0.86,0.15,1.35v6.01h-1.5    v-6.19c0-0.57-0.16-1.01-0.49-1.34s-0.78-0.49-1.36-0.49c-0.46,0-0.86,0.07-1.19,0.21c-0.34,0.14-0.62,0.34-0.84,0.6    c-0.22,0.26-0.39,0.56-0.5,0.91c-0.11,0.35-0.17,0.73-0.17,1.14v5.16h-1.5V367.87z"/>
		<path class="st5" d="M240.9,376.97c-0.27,0.16-0.63,0.25-1.08,0.25c-0.39,0-0.7-0.11-0.93-0.34c-0.23-0.22-0.34-0.58-0.34-1.08    c-0.41,0.49-0.89,0.85-1.44,1.08c-0.55,0.22-1.14,0.34-1.78,0.34c-0.41,0-0.8-0.05-1.17-0.14c-0.37-0.09-0.69-0.25-0.96-0.45    c-0.27-0.21-0.49-0.47-0.65-0.8c-0.16-0.32-0.24-0.72-0.24-1.18c0-0.52,0.09-0.94,0.27-1.27s0.41-0.6,0.7-0.8    c0.29-0.2,0.62-0.36,0.99-0.47c0.37-0.11,0.75-0.2,1.14-0.27c0.41-0.08,0.8-0.14,1.18-0.19c0.37-0.04,0.7-0.1,0.98-0.18    c0.28-0.08,0.51-0.19,0.67-0.34c0.16-0.15,0.25-0.36,0.25-0.64c0-0.33-0.06-0.6-0.19-0.8c-0.12-0.2-0.28-0.35-0.48-0.46    c-0.19-0.11-0.41-0.18-0.65-0.21c-0.24-0.04-0.48-0.05-0.72-0.05c-0.64,0-1.17,0.12-1.59,0.36c-0.42,0.24-0.65,0.7-0.69,1.37h-1.5    c0.02-0.56,0.14-1.04,0.35-1.43s0.49-0.7,0.85-0.95c0.35-0.24,0.76-0.42,1.22-0.52c0.46-0.11,0.94-0.16,1.45-0.16    c0.41,0,0.82,0.03,1.23,0.09c0.41,0.06,0.77,0.18,1.1,0.36c0.33,0.18,0.6,0.44,0.8,0.77c0.2,0.33,0.3,0.76,0.3,1.29v4.7    c0,0.35,0.02,0.61,0.06,0.78c0.04,0.17,0.18,0.25,0.42,0.25c0.14,0,0.29-0.03,0.46-0.09V376.97z M238.47,372.29    c-0.14,0.1-0.32,0.19-0.53,0.25s-0.44,0.11-0.67,0.15c-0.24,0.04-0.49,0.08-0.75,0.11c-0.27,0.03-0.52,0.07-0.77,0.12    c-0.25,0.05-0.48,0.11-0.71,0.18c-0.22,0.07-0.42,0.17-0.58,0.29c-0.16,0.12-0.3,0.28-0.4,0.47c-0.1,0.19-0.15,0.42-0.15,0.71    c0,0.25,0.05,0.46,0.15,0.63c0.1,0.17,0.23,0.31,0.39,0.41c0.16,0.11,0.34,0.18,0.56,0.23c0.21,0.05,0.44,0.07,0.67,0.07    c0.49,0,0.92-0.07,1.27-0.2c0.35-0.14,0.64-0.31,0.87-0.51c0.22-0.21,0.39-0.43,0.49-0.67c0.11-0.24,0.16-0.47,0.16-0.68V372.29z"/>
		<path class="st5" d="M242.3,367.87h1.41v1.45h0.04c0.32-0.57,0.73-0.98,1.23-1.26s1.08-0.41,1.74-0.41c0.6,0,1.1,0.08,1.5,0.25    c0.4,0.16,0.72,0.39,0.97,0.69c0.25,0.29,0.42,0.64,0.52,1.05c0.1,0.41,0.15,0.86,0.15,1.35v6.01h-1.5v-6.19    c0-0.57-0.16-1.01-0.49-1.34c-0.33-0.33-0.78-0.49-1.36-0.49c-0.46,0-0.86,0.07-1.19,0.21c-0.34,0.14-0.62,0.34-0.84,0.6    c-0.22,0.26-0.39,0.56-0.5,0.91c-0.11,0.35-0.17,0.73-0.17,1.14v5.16h-1.5V367.87z"/>
		<path class="st5" d="M258.33,370.81c-0.12-0.58-0.37-1.03-0.75-1.34c-0.38-0.32-0.89-0.48-1.51-0.48c-0.54,0-1,0.1-1.36,0.3    c-0.37,0.2-0.66,0.47-0.88,0.8c-0.22,0.33-0.37,0.71-0.47,1.14c-0.09,0.43-0.14,0.87-0.14,1.34c0,0.42,0.05,0.84,0.15,1.24    s0.26,0.76,0.47,1.07c0.21,0.31,0.49,0.56,0.82,0.75c0.34,0.19,0.74,0.28,1.23,0.28c0.73,0,1.31-0.2,1.73-0.59    s0.68-0.94,0.78-1.63h1.54c-0.16,1.12-0.59,1.99-1.27,2.62c-0.68,0.62-1.6,0.94-2.76,0.94c-0.7,0-1.31-0.12-1.85-0.35    c-0.54-0.23-0.98-0.55-1.34-0.96c-0.36-0.41-0.63-0.9-0.81-1.48c-0.18-0.57-0.27-1.2-0.27-1.88c0-0.68,0.09-1.32,0.27-1.92    c0.18-0.6,0.44-1.11,0.8-1.56c0.36-0.44,0.81-0.79,1.34-1.04c0.54-0.25,1.17-0.38,1.9-0.38c0.52,0,1,0.06,1.46,0.19    s0.86,0.31,1.21,0.57c0.35,0.26,0.64,0.59,0.86,0.98c0.22,0.4,0.36,0.86,0.42,1.41H258.33z"/>
		<path class="st5" d="M263.21,366.23h-1.5v-1.84h1.5V366.23z M261.71,367.87h1.5v9.14h-1.5V367.87z"/>
		<path class="st5" d="M273.64,376.97c-0.27,0.16-0.63,0.25-1.08,0.25c-0.39,0-0.7-0.11-0.93-0.34c-0.23-0.22-0.34-0.58-0.34-1.08    c-0.41,0.49-0.89,0.85-1.44,1.08c-0.55,0.22-1.14,0.34-1.78,0.34c-0.41,0-0.8-0.05-1.17-0.14c-0.37-0.09-0.69-0.25-0.96-0.45    c-0.27-0.21-0.49-0.47-0.65-0.8c-0.16-0.32-0.24-0.72-0.24-1.18c0-0.52,0.09-0.94,0.27-1.27c0.18-0.33,0.41-0.6,0.7-0.8    c0.29-0.2,0.62-0.36,0.99-0.47c0.37-0.11,0.75-0.2,1.14-0.27c0.41-0.08,0.8-0.14,1.18-0.19c0.37-0.04,0.7-0.1,0.98-0.18    c0.28-0.08,0.51-0.19,0.67-0.34c0.17-0.15,0.25-0.36,0.25-0.64c0-0.33-0.06-0.6-0.19-0.8c-0.12-0.2-0.28-0.35-0.48-0.46    c-0.19-0.11-0.41-0.18-0.65-0.21c-0.24-0.04-0.48-0.05-0.72-0.05c-0.64,0-1.17,0.12-1.59,0.36c-0.42,0.24-0.65,0.7-0.69,1.37h-1.5    c0.02-0.56,0.14-1.04,0.35-1.43c0.21-0.39,0.49-0.7,0.85-0.95c0.35-0.24,0.76-0.42,1.22-0.52c0.46-0.11,0.94-0.16,1.45-0.16    c0.41,0,0.82,0.03,1.23,0.09c0.41,0.06,0.77,0.18,1.1,0.36c0.33,0.18,0.6,0.44,0.8,0.77c0.2,0.33,0.3,0.76,0.3,1.29v4.7    c0,0.35,0.02,0.61,0.06,0.78c0.04,0.17,0.18,0.25,0.42,0.25c0.14,0,0.29-0.03,0.46-0.09V376.97z M271.2,372.29    c-0.14,0.1-0.32,0.19-0.53,0.25c-0.21,0.06-0.44,0.11-0.67,0.15c-0.24,0.04-0.49,0.08-0.75,0.11c-0.27,0.03-0.52,0.07-0.77,0.12    c-0.25,0.05-0.48,0.11-0.71,0.18c-0.22,0.07-0.42,0.17-0.58,0.29c-0.17,0.12-0.3,0.28-0.4,0.47c-0.1,0.19-0.15,0.42-0.15,0.71    c0,0.25,0.05,0.46,0.15,0.63c0.1,0.17,0.23,0.31,0.39,0.41c0.16,0.11,0.34,0.18,0.56,0.23c0.21,0.05,0.44,0.07,0.67,0.07    c0.49,0,0.92-0.07,1.27-0.2c0.35-0.14,0.64-0.31,0.87-0.51c0.22-0.21,0.39-0.43,0.49-0.67c0.11-0.24,0.16-0.47,0.16-0.68V372.29z"/>
		<path class="st5" d="M275.12,364.39h1.5v12.62h-1.5V364.39z"/>
		<path class="st5" d="M287.55,364.39h1.86l4.93,12.62h-1.86l-1.38-3.8h-5.34l-1.41,3.8h-1.73L287.55,364.39z M286.29,371.8h4.28    l-2.1-5.89h-0.04L286.29,371.8z"/>
		<path class="st5" d="M301.53,370.81c-0.12-0.58-0.37-1.03-0.75-1.34c-0.38-0.32-0.89-0.48-1.51-0.48c-0.54,0-1,0.1-1.36,0.3    c-0.37,0.2-0.66,0.47-0.88,0.8c-0.22,0.33-0.37,0.71-0.47,1.14c-0.09,0.43-0.14,0.87-0.14,1.34c0,0.42,0.05,0.84,0.15,1.24    s0.26,0.76,0.47,1.07c0.21,0.31,0.49,0.56,0.82,0.75c0.34,0.19,0.74,0.28,1.23,0.28c0.73,0,1.31-0.2,1.73-0.59    c0.42-0.39,0.68-0.94,0.78-1.63h1.54c-0.17,1.12-0.59,1.99-1.27,2.62s-1.6,0.94-2.76,0.94c-0.7,0-1.31-0.12-1.85-0.35    c-0.54-0.23-0.98-0.55-1.34-0.96c-0.36-0.41-0.63-0.9-0.81-1.48c-0.18-0.57-0.27-1.2-0.27-1.88c0-0.68,0.09-1.32,0.27-1.92    c0.18-0.6,0.44-1.11,0.8-1.56c0.36-0.44,0.81-0.79,1.34-1.04c0.54-0.25,1.17-0.38,1.9-0.38c0.52,0,1,0.06,1.46,0.19    c0.45,0.12,0.86,0.31,1.21,0.57c0.35,0.26,0.64,0.59,0.86,0.98c0.22,0.4,0.36,0.86,0.42,1.41H301.53z"/>
		<path class="st5" d="M312.91,376.97c-0.27,0.16-0.63,0.25-1.08,0.25c-0.39,0-0.7-0.11-0.93-0.34c-0.23-0.22-0.34-0.58-0.34-1.08    c-0.41,0.49-0.89,0.85-1.44,1.08c-0.55,0.22-1.14,0.34-1.78,0.34c-0.41,0-0.8-0.05-1.17-0.14c-0.37-0.09-0.69-0.25-0.96-0.45    c-0.27-0.21-0.49-0.47-0.65-0.8c-0.16-0.32-0.24-0.72-0.24-1.18c0-0.52,0.09-0.94,0.27-1.27c0.18-0.33,0.41-0.6,0.7-0.8    c0.29-0.2,0.62-0.36,0.99-0.47c0.37-0.11,0.75-0.2,1.14-0.27c0.41-0.08,0.8-0.14,1.18-0.19c0.37-0.04,0.7-0.1,0.98-0.18    c0.28-0.08,0.51-0.19,0.67-0.34c0.17-0.15,0.25-0.36,0.25-0.64c0-0.33-0.06-0.6-0.19-0.8c-0.12-0.2-0.28-0.35-0.48-0.46    c-0.19-0.11-0.41-0.18-0.65-0.21c-0.24-0.04-0.48-0.05-0.72-0.05c-0.64,0-1.17,0.12-1.59,0.36c-0.42,0.24-0.65,0.7-0.69,1.37h-1.5    c0.02-0.56,0.14-1.04,0.35-1.43c0.21-0.39,0.49-0.7,0.85-0.95c0.35-0.24,0.76-0.42,1.22-0.52c0.46-0.11,0.94-0.16,1.45-0.16    c0.41,0,0.82,0.03,1.23,0.09c0.41,0.06,0.77,0.18,1.1,0.36c0.33,0.18,0.6,0.44,0.8,0.77c0.2,0.33,0.3,0.76,0.3,1.29v4.7    c0,0.35,0.02,0.61,0.06,0.78c0.04,0.17,0.18,0.25,0.42,0.25c0.14,0,0.29-0.03,0.46-0.09V376.97z M310.47,372.29    c-0.14,0.1-0.32,0.19-0.53,0.25c-0.21,0.06-0.44,0.11-0.67,0.15c-0.24,0.04-0.49,0.08-0.75,0.11c-0.27,0.03-0.52,0.07-0.77,0.12    c-0.25,0.05-0.48,0.11-0.71,0.18c-0.22,0.07-0.42,0.17-0.58,0.29c-0.16,0.12-0.3,0.28-0.4,0.47c-0.1,0.19-0.15,0.42-0.15,0.71    c0,0.25,0.05,0.46,0.15,0.63c0.1,0.17,0.23,0.31,0.39,0.41c0.16,0.11,0.34,0.18,0.56,0.23c0.21,0.05,0.44,0.07,0.67,0.07    c0.49,0,0.92-0.07,1.27-0.2c0.35-0.14,0.64-0.31,0.87-0.51c0.22-0.21,0.39-0.43,0.49-0.67c0.11-0.24,0.16-0.47,0.16-0.68V372.29z"/>
		<path class="st5" d="M322.47,377.01h-1.5v-1.24h-0.04c-0.25,0.51-0.64,0.87-1.17,1.1c-0.53,0.23-1.11,0.35-1.75,0.35    c-0.71,0-1.32-0.13-1.85-0.39c-0.53-0.26-0.96-0.61-1.31-1.05c-0.35-0.44-0.61-0.95-0.79-1.53s-0.27-1.19-0.27-1.84    s0.09-1.26,0.26-1.83c0.17-0.57,0.43-1.07,0.78-1.51c0.35-0.43,0.78-0.78,1.31-1.03c0.52-0.25,1.13-0.38,1.83-0.38    c0.24,0,0.49,0.02,0.76,0.07c0.27,0.05,0.54,0.13,0.81,0.24c0.27,0.11,0.53,0.26,0.77,0.44c0.24,0.18,0.44,0.41,0.61,0.68h0.04    v-4.7h1.5V377.01z M315.4,372.52c0,0.42,0.06,0.84,0.17,1.25c0.11,0.41,0.28,0.77,0.51,1.09c0.23,0.32,0.52,0.57,0.88,0.76    c0.36,0.19,0.78,0.28,1.26,0.28c0.51,0,0.94-0.1,1.29-0.3c0.35-0.2,0.64-0.46,0.87-0.79c0.22-0.32,0.39-0.69,0.49-1.1    c0.1-0.41,0.15-0.83,0.15-1.26c0-0.45-0.05-0.88-0.16-1.3c-0.11-0.42-0.27-0.79-0.5-1.1s-0.53-0.58-0.89-0.77    c-0.37-0.19-0.81-0.29-1.33-0.29c-0.52,0-0.95,0.1-1.3,0.3c-0.35,0.2-0.63,0.47-0.84,0.8c-0.21,0.33-0.37,0.71-0.46,1.13    C315.45,371.63,315.4,372.07,315.4,372.52z"/>
		<path class="st5" d="M332.58,374.11c-0.2,1.01-0.64,1.79-1.33,2.32c-0.68,0.53-1.54,0.8-2.58,0.8c-0.73,0-1.36-0.12-1.9-0.36    c-0.54-0.24-0.99-0.58-1.35-1c-0.36-0.42-0.64-0.93-0.82-1.52c-0.18-0.59-0.29-1.23-0.31-1.93c0-0.68,0.11-1.32,0.32-1.9    c0.21-0.58,0.51-1.09,0.89-1.51c0.38-0.43,0.84-0.75,1.36-0.99c0.52-0.24,1.1-0.35,1.72-0.35c0.81,0,1.49,0.17,2.02,0.5    c0.54,0.34,0.97,0.76,1.29,1.28c0.32,0.52,0.55,1.08,0.67,1.7c0.12,0.61,0.17,1.2,0.15,1.75h-6.84c-0.01,0.4,0.04,0.78,0.14,1.14    c0.11,0.36,0.28,0.68,0.51,0.95c0.24,0.28,0.54,0.5,0.9,0.66c0.36,0.17,0.79,0.25,1.29,0.25c0.62,0,1.14-0.15,1.56-0.44    c0.41-0.29,0.68-0.74,0.81-1.34H332.58z M331.13,371.57c-0.02-0.35-0.1-0.69-0.24-1.01c-0.14-0.32-0.32-0.59-0.55-0.82    c-0.23-0.23-0.5-0.41-0.82-0.55c-0.32-0.14-0.66-0.2-1.03-0.2c-0.39,0-0.74,0.07-1.05,0.2c-0.31,0.14-0.58,0.32-0.8,0.56    c-0.22,0.24-0.4,0.51-0.53,0.82c-0.13,0.31-0.21,0.64-0.23,1H331.13z"/>
		<path class="st5" d="M334.28,367.87h1.41v1.34h0.04c0.68-1.04,1.67-1.56,2.95-1.56c0.57,0,1.08,0.12,1.54,0.35    c0.46,0.24,0.78,0.64,0.97,1.2c0.31-0.49,0.71-0.88,1.22-1.15c0.51-0.27,1.05-0.41,1.64-0.41c0.46,0,0.88,0.05,1.25,0.15    c0.37,0.1,0.69,0.26,0.95,0.47c0.26,0.21,0.47,0.49,0.62,0.82c0.15,0.33,0.22,0.74,0.22,1.21v6.7h-1.5v-5.99    c0-0.28-0.02-0.55-0.07-0.8c-0.05-0.25-0.14-0.46-0.27-0.64c-0.13-0.18-0.31-0.33-0.54-0.43c-0.23-0.1-0.53-0.16-0.89-0.16    c-0.73,0-1.31,0.21-1.74,0.64c-0.43,0.42-0.64,0.99-0.64,1.7v5.69h-1.5v-5.99c0-0.29-0.03-0.57-0.08-0.81    c-0.05-0.25-0.14-0.46-0.27-0.64c-0.13-0.18-0.31-0.32-0.53-0.42c-0.22-0.1-0.5-0.15-0.83-0.15c-0.45,0-0.82,0.09-1.13,0.27    c-0.31,0.18-0.56,0.39-0.75,0.64c-0.19,0.25-0.34,0.5-0.42,0.77c-0.09,0.27-0.13,0.49-0.13,0.66v5.69h-1.5V367.87z"/>
		<path class="st5" d="M352.94,378.23c-0.18,0.45-0.35,0.82-0.52,1.13c-0.17,0.31-0.36,0.56-0.56,0.75    c-0.2,0.19-0.43,0.33-0.69,0.42c-0.26,0.09-0.55,0.13-0.88,0.13c-0.18,0-0.35-0.01-0.53-0.04c-0.18-0.02-0.35-0.06-0.51-0.12    v-1.38c0.14,0.05,0.29,0.1,0.43,0.14c0.15,0.05,0.3,0.07,0.45,0.07c0.31,0,0.55-0.07,0.74-0.21c0.19-0.14,0.35-0.35,0.49-0.62    l0.62-1.55l-3.62-9.09h1.7l2.67,7.48h0.04l2.56-7.48h1.59L352.94,378.23z"/>
	</g>
</g>
</svg>